<?xml version="1.0" standalone="no"?>
<!DOCTYPE svg PUBLIC "-//W3C//DTD SVG 1.1//EN" "http://www.w3.org/Graphics/SVG/1.1/DTD/svg11.dtd">
<svg xmlns="http://www.w3.org/2000/svg" xmlns:xlink="http://www.w3.org/1999/xlink" width="375" zoomAndPan="magnify"
     viewBox="0 0 375 374.999991" height="375" preserveAspectRatio="xMidYMid meet" version="1.0">
    <defs>
        <g/>
        <clipPath id="f256ac1303">
            <path d="M 51 135 L 125.507812 135 L 125.507812 203 L 51 203 Z M 51 135 " clip-rule="nonzero"/>
        </clipPath>
        <clipPath id="f7e2389936">
            <path d="M 249.492188 172 L 324 172 L 324 240 L 249.492188 240 Z M 249.492188 172 " clip-rule="nonzero"/>
        </clipPath>
        <clipPath id="8c7f0d5774">
            <path d="M 128 98 L 244 98 L 244 278 L 128 278 Z M 128 98 " clip-rule="nonzero"/>
        </clipPath>
        <clipPath id="8e1fc6969d">
            <path d="M 92.394531 135.230469 L 237.179688 96.035156 L 276.183594 240.097656 L 131.394531 279.296875 Z M 92.394531 135.230469 "
                  clip-rule="nonzero"/>
        </clipPath>
        <clipPath id="e27973d6b6">
            <path d="M 92.394531 135.230469 L 237.179688 96.035156 L 276.183594 240.097656 L 131.394531 279.296875 Z M 92.394531 135.230469 "
                  clip-rule="nonzero"/>
        </clipPath>
        <clipPath id="0d70010dd1">
            <path d="M 92.445312 135.21875 L 237.128906 96.046875 L 276.039062 239.777344 L 131.359375 278.949219 Z M 92.445312 135.21875 "
                  clip-rule="nonzero"/>
        </clipPath>
    </defs>
    <path fill="#000000"
          d="M 116.582031 260.90625 C 114.625 262.425781 111.65625 262.066406 110.136719 260.039062 C 88.3125 237.867188 66.617188 215.269531 47.855469 190.296875 C 40.761719 184.089844 46.128906 172.714844 53.46875 181.253906 C 74.199219 206.480469 95.617188 230.667969 117.667969 254.609375 C 118.960938 256.644531 118.507812 259.382812 116.582031 260.90625 Z M 116.582031 260.90625 "
          fill-opacity="1" fill-rule="nonzero"/>
    <path fill="#000000"
          d="M 121.921875 258.792969 C 118.664062 260.3125 115.984375 257.277344 113.808594 255.316406 C 92.882812 234.460938 73.210938 212.242188 54.933594 189.058594 C 53.558594 187.171875 53.703125 184.570312 55.296875 182.902344 C 62.515625 177.941406 67.492188 190.824219 72.308594 194.359375 C 89.992188 213.433594 104.15625 234.644531 123.585938 251.339844 C 125.511719 253.742188 124.855469 257.480469 121.921875 258.792969 Z M 121.921875 258.792969 "
          fill-opacity="1" fill-rule="nonzero"/>
    <path fill="#000000"
          d="M 119.761719 244.582031 C 118.457031 246.246094 116.214844 246.757812 114.257812 246.03125 C 103.5625 235.214844 93.144531 223.171875 82.539062 211.851562 C 73.839844 202.175781 65.6875 192.144531 57.914062 181.800781 C 56.320312 179.839844 56.757812 176.875 58.710938 175.347656 C 60.8125 173.761719 63.566406 174.261719 65.230469 176.148438 C 73.5625 185.429688 81.992188 194.839844 90.035156 204.246094 C 100.042969 215.8125 110.554688 226.722656 119.761719 238.933594 C 120.925781 240.683594 121.054688 242.863281 119.761719 244.582031 Z M 119.761719 244.582031 "
          fill-opacity="1" fill-rule="nonzero"/>
    <g clip-path="url(#f256ac1303)">
        <path fill="#000000"
              d="M 125.238281 141.632812 L 125.238281 141.707031 C 124.753906 143.292969 123.097656 144.671875 121.441406 144.808594 C 102.761719 166.214844 81.875 186.992188 58.105469 202.464844 C 55.644531 203.40625 53.183594 201.746094 52.242188 199.5 C 51.515625 197.542969 52.386719 195.589844 53.757812 194.136719 C 67.566406 183.574219 81.375 170.675781 93.882812 159.015625 C 100.132812 154.628906 123.28125 122.039062 125.238281 141.632812 Z M 125.238281 141.632812 "
              fill-opacity="1" fill-rule="nonzero"/>
    </g>
    <path fill="#000000"
          d="M 119.304688 127.550781 C 103.558594 154.207031 82.074219 176.484375 57.75 195.523438 C 55.675781 196.917969 52.695312 196.441406 51.277344 194.253906 C 49.210938 191.078125 51.691406 188.199219 54.277344 186.320312 C 67.351562 174.097656 80.179688 162.449219 91.929688 149.109375 C 99.78125 140.433594 105.941406 131.277344 112.191406 121.644531 C 115.953125 117.648438 122.5 123.03125 119.304688 127.550781 Z M 119.304688 127.550781 "
          fill-opacity="1" fill-rule="nonzero"/>
    <path fill="#000000"
          d="M 110.046875 122.132812 C 96.628906 147.054688 78.226562 169.027344 58.335938 188.980469 C 56.527344 190.496094 53.847656 190.429688 52.109375 188.835938 C 50.445312 187.3125 49.9375 184.492188 51.386719 182.675781 C 66.582031 163.765625 83.867188 145.835938 97.472656 125.828125 C 99.195312 122.976562 100.308594 120.730469 101.789062 117.933594 C 104.464844 112.5625 112.824219 116.847656 110.042969 122.132812 Z M 110.046875 122.132812 "
          fill-opacity="1" fill-rule="nonzero"/>
    <path fill="#000000"
          d="M 258.417969 114.09375 C 260.375 112.574219 263.34375 112.933594 264.863281 114.960938 C 286.6875 137.132812 308.382812 159.730469 327.144531 184.703125 C 334.238281 190.910156 328.871094 202.285156 321.53125 193.746094 C 300.800781 168.519531 279.382812 144.332031 257.332031 120.386719 C 256.039062 118.355469 256.492188 115.617188 258.417969 114.09375 Z M 258.417969 114.09375 "
          fill-opacity="1" fill-rule="nonzero"/>
    <path fill="#000000"
          d="M 253.078125 116.207031 C 256.335938 114.6875 259.015625 117.722656 261.191406 119.683594 C 282.117188 140.539062 301.789062 162.757812 320.066406 185.941406 C 321.441406 187.828125 321.296875 190.429688 319.703125 192.097656 C 312.484375 197.058594 307.507812 184.175781 302.691406 180.640625 C 285.007812 161.566406 270.84375 140.355469 251.414062 123.660156 C 249.488281 121.257812 250.144531 117.519531 253.078125 116.207031 Z M 253.078125 116.207031 "
          fill-opacity="1" fill-rule="nonzero"/>
    <path fill="#000000"
          d="M 255.238281 130.417969 C 256.542969 128.753906 258.785156 128.242188 260.742188 128.96875 C 271.4375 139.785156 281.855469 151.828125 292.460938 163.148438 C 301.160156 172.824219 309.3125 182.855469 317.085938 193.199219 C 318.679688 195.160156 318.242188 198.125 316.289062 199.652344 C 314.1875 201.238281 311.433594 200.738281 309.769531 198.851562 C 301.4375 189.570312 293.007812 180.160156 284.964844 170.753906 C 274.957031 159.1875 264.445312 148.277344 255.238281 136.066406 C 254.074219 134.316406 253.945312 132.136719 255.238281 130.417969 Z M 255.238281 130.417969 "
          fill-opacity="1" fill-rule="nonzero"/>
    <g clip-path="url(#f7e2389936)">
        <path fill="#000000"
              d="M 249.761719 233.367188 L 249.761719 233.292969 C 250.246094 231.707031 251.902344 230.328125 253.558594 230.191406 C 272.238281 208.785156 293.125 188.007812 316.894531 172.535156 C 319.355469 171.59375 321.816406 173.253906 322.757812 175.5 C 323.484375 177.457031 322.613281 179.410156 321.242188 180.863281 C 307.433594 191.425781 293.625 204.324219 281.117188 215.984375 C 274.867188 220.371094 251.71875 252.960938 249.761719 233.367188 Z M 249.761719 233.367188 "
              fill-opacity="1" fill-rule="nonzero"/>
    </g>
    <path fill="#000000"
          d="M 255.695312 247.449219 C 271.441406 220.792969 292.925781 198.515625 317.25 179.476562 C 319.324219 178.082031 322.304688 178.558594 323.722656 180.746094 C 325.789062 183.921875 323.308594 186.800781 320.722656 188.679688 C 307.648438 200.902344 294.820312 212.550781 283.070312 225.890625 C 275.21875 234.566406 269.058594 243.722656 262.808594 253.355469 C 259.046875 257.351562 252.5 251.96875 255.695312 247.449219 Z M 255.695312 247.449219 "
          fill-opacity="1" fill-rule="nonzero"/>
    <path fill="#000000"
          d="M 264.953125 252.867188 C 278.371094 227.945312 296.773438 205.972656 316.664062 186.019531 C 318.472656 184.503906 321.152344 184.570312 322.890625 186.164062 C 324.554688 187.6875 325.0625 190.507812 323.613281 192.324219 C 308.417969 211.234375 291.132812 229.164062 277.527344 249.171875 C 275.804688 252.023438 274.691406 254.269531 273.210938 257.066406 C 270.535156 262.4375 262.175781 258.152344 264.957031 252.867188 Z M 264.953125 252.867188 "
          fill-opacity="1" fill-rule="nonzero"/>
    <g clip-path="url(#8c7f0d5774)">
        <g clip-path="url(#8e1fc6969d)">
            <g clip-path="url(#e27973d6b6)">
                <g clip-path="url(#0d70010dd1)">
                    <path fill="#000000"
                          d="M 142.59375 242.679688 C 143.445312 241.246094 144.359375 240.046875 145.054688 239.210938 C 145.75 238.375 146.230469 237.894531 146.230469 237.894531 C 146.230469 237.894531 145.066406 240.25 143.371094 243.09375 C 141.675781 245.933594 140.078125 248.226562 140.078125 248.226562 C 140.078125 248.226562 140.28125 247.558594 140.695312 246.53125 C 141.109375 245.5 141.742188 244.113281 142.59375 242.679688 Z M 241.257812 122.589844 C 241.246094 124 241.050781 125.410156 240.703125 126.789062 C 240 129.554688 238.6875 132.171875 237.171875 134.65625 C 236.15625 136.292969 235.046875 137.875 233.902344 139.441406 C 234.425781 138.511719 234.9375 137.570312 235.417969 136.605469 C 236.710938 133.957031 237.816406 131.175781 238.523438 128.257812 L 238.660156 127.714844 L 238.773438 127.164062 C 238.847656 126.792969 238.925781 126.429688 238.992188 126.058594 C 239.101562 125.3125 239.230469 124.570312 239.289062 123.816406 C 239.378906 123.070312 239.386719 122.304688 239.417969 121.539062 C 239.417969 121.160156 239.398438 120.777344 239.390625 120.394531 L 239.371094 119.824219 L 239.316406 119.253906 C 239.054688 116.253906 238.226562 113.300781 236.808594 110.609375 C 236.851562 110.40625 236.894531 110.203125 236.933594 109.996094 C 236.9375 109.960938 236.945312 109.925781 236.949219 109.890625 C 237.0625 110.085938 237.171875 110.28125 237.28125 110.472656 C 238.722656 113.019531 240.019531 115.636719 240.726562 118.398438 C 241.070312 119.777344 241.277344 121.179688 241.257812 122.589844 Z M 190.957031 188.308594 C 188.847656 190.382812 186.78125 192.503906 184.835938 194.738281 C 182.898438 196.976562 181.078125 199.324219 179.539062 201.855469 C 179 202.742188 178.65625 203.550781 178.457031 204.171875 C 178.441406 204.230469 178.429688 204.273438 178.417969 204.328125 C 177.890625 204.097656 177.382812 203.863281 176.898438 203.613281 C 176.699219 203.511719 176.503906 203.402344 176.304688 203.300781 C 176.480469 203.121094 176.671875 202.921875 176.882812 202.691406 L 178.164062 201.28125 C 178.589844 200.808594 179.039062 200.355469 179.476562 199.890625 C 180.359375 198.96875 181.222656 198.03125 182.109375 197.113281 C 183.003906 196.195312 183.898438 195.277344 184.796875 194.359375 C 185.6875 193.433594 186.609375 192.535156 187.511719 191.617188 C 191.152344 187.96875 194.851562 184.332031 198.574219 180.671875 C 199.335938 179.925781 200.097656 179.171875 200.859375 178.417969 C 197.613281 181.769531 194.304688 185.058594 190.957031 188.308594 Z M 179.039062 209.316406 C 178.625 210.1875 178.199219 211.054688 177.738281 211.90625 C 177.375 212.582031 176.988281 213.242188 176.585938 213.902344 C 176.535156 213.878906 176.488281 213.859375 176.433594 213.835938 C 176.28125 213.773438 176.113281 213.699219 175.933594 213.621094 C 176.277344 212.976562 176.644531 212.289062 177.03125 211.574219 C 178.027344 209.734375 178.902344 208.113281 179.484375 207.035156 C 179.625 207.089844 179.769531 207.148438 179.921875 207.210938 C 179.726562 207.761719 179.5 208.351562 179.039062 209.316406 Z M 172.71875 216.191406 C 172.871094 215.921875 173.066406 215.578125 173.289062 215.167969 C 173.316406 215.121094 173.34375 215.070312 173.371094 215.023438 C 173.507812 215.058594 173.640625 215.09375 173.773438 215.121094 C 173.617188 215.652344 173.511719 216.082031 173.445312 216.371094 C 173.421875 216.367188 173.394531 216.359375 173.367188 216.355469 C 173.15625 216.308594 172.925781 216.246094 172.71875 216.191406 Z M 171.941406 218.761719 L 171.917969 218.808594 L 171.90625 218.835938 L 171.898438 218.851562 C 171.890625 218.867188 171.910156 218.835938 171.867188 218.902344 L 171.117188 220.152344 C 171.011719 220.113281 170.886719 220.0625 170.75 220.011719 C 170.757812 219.714844 170.75 219.433594 170.734375 219.195312 C 170.9375 219.25 171.054688 219.28125 171.054688 219.28125 C 171.054688 219.28125 170.9375 219.199219 170.722656 219.0625 C 170.6875 218.691406 170.636719 218.421875 170.613281 218.296875 L 171.425781 218.558594 C 171.511719 218.585938 171.597656 218.605469 171.683594 218.632812 L 171.75 218.648438 L 171.757812 218.648438 L 171.773438 218.652344 C 171.796875 218.65625 171.800781 218.65625 171.816406 218.65625 L 171.972656 218.667969 C 171.980469 218.664062 171.976562 218.667969 171.976562 218.671875 Z M 162.328125 234.714844 C 162.078125 234.90625 161.679688 235.207031 161.171875 235.601562 C 160.96875 235.757812 160.75 235.925781 160.519531 236.109375 C 160.472656 235.925781 160.425781 235.757812 160.386719 235.621094 C 160.304688 235.359375 160.25 235.183594 160.230469 235.109375 C 160.65625 234.785156 161.046875 234.460938 161.394531 234.144531 C 161.34375 234.390625 161.320312 234.527344 161.320312 234.527344 C 161.320312 234.527344 161.40625 234.335938 161.558594 233.996094 C 161.871094 233.710938 162.152344 233.433594 162.390625 233.1875 C 162.757812 232.800781 163.039062 232.480469 163.226562 232.25 C 163.414062 232.023438 163.515625 231.898438 163.515625 231.898438 C 163.515625 231.898438 163.375 231.988281 163.125 232.15625 C 162.878906 232.328125 162.523438 232.570312 162.082031 232.871094 C 162.074219 232.875 162.066406 232.882812 162.058594 232.886719 C 162.101562 232.792969 162.144531 232.695312 162.191406 232.59375 C 162.5 232.375 162.773438 232.160156 163.003906 231.964844 C 163.34375 231.675781 163.605469 231.425781 163.777344 231.246094 C 163.949219 231.066406 164.042969 230.96875 164.042969 230.96875 C 164.042969 230.96875 163.539062 231.214844 162.738281 231.613281 C 162.691406 231.636719 162.644531 231.660156 162.601562 231.679688 C 162.707031 231.441406 162.820312 231.195312 162.933594 230.9375 C 163.1875 230.832031 163.421875 230.730469 163.628906 230.636719 C 164.375 230.292969 164.8125 230.046875 164.8125 230.046875 C 164.8125 230.046875 164.289062 230.089844 163.472656 230.222656 C 163.398438 230.234375 163.316406 230.25 163.238281 230.261719 C 163.34375 230.027344 163.453125 229.785156 163.566406 229.539062 C 163.730469 229.5 163.890625 229.460938 164.039062 229.421875 C 164.835938 229.21875 165.308594 229.039062 165.308594 229.039062 C 165.308594 229.039062 164.785156 229.003906 163.957031 228.992188 C 163.910156 228.992188 163.859375 228.988281 163.8125 228.988281 C 163.933594 228.714844 164.0625 228.433594 164.191406 228.144531 C 164.214844 228.144531 164.238281 228.140625 164.261719 228.136719 C 164.734375 228.070312 165.109375 228.003906 165.371094 227.949219 C 165.628906 227.890625 165.769531 227.859375 165.769531 227.859375 C 165.769531 227.859375 165.238281 227.796875 164.386719 227.714844 C 164.402344 227.675781 164.417969 227.640625 164.4375 227.601562 C 164.53125 227.382812 164.628906 227.164062 164.722656 226.949219 C 164.789062 226.949219 164.855469 226.945312 164.917969 226.945312 C 165.550781 226.921875 166.027344 226.882812 166.296875 226.855469 C 166.289062 226.878906 166.277344 226.910156 166.269531 226.933594 C 166.167969 227.203125 166.109375 227.351562 166.109375 227.351562 C 166.109375 227.351562 166.210938 227.222656 166.394531 226.988281 C 166.429688 226.941406 166.46875 226.886719 166.507812 226.832031 C 166.527344 226.832031 166.539062 226.828125 166.539062 226.828125 C 166.539062 226.828125 166.53125 226.824219 166.515625 226.824219 C 166.679688 226.597656 166.875 226.300781 167.089844 225.933594 C 167.140625 225.847656 167.1875 225.757812 167.238281 225.671875 C 167.238281 225.671875 167.242188 225.671875 167.242188 225.671875 C 167.242188 225.671875 167.238281 225.667969 167.238281 225.671875 C 167.441406 225.300781 167.652344 224.871094 167.851562 224.386719 C 168.125 224.382812 168.363281 224.375 168.574219 224.363281 L 167.609375 225.964844 C 165.851562 228.882812 164.089844 231.800781 162.328125 234.714844 Z M 161.15625 238.285156 C 161.09375 238.347656 161.035156 238.414062 160.96875 238.484375 C 160.910156 238 160.835938 237.550781 160.757812 237.152344 C 160.730469 237.027344 160.707031 236.910156 160.683594 236.792969 C 160.984375 236.472656 161.261719 236.167969 161.496094 235.898438 C 161.652344 235.714844 161.792969 235.554688 161.914062 235.402344 C 161.878906 235.464844 161.839844 235.53125 161.800781 235.59375 C 161.585938 236.492188 161.371094 237.386719 161.15625 238.285156 Z M 143.160156 272.113281 C 142.523438 272.546875 141.871094 272.980469 141.230469 273.394531 C 140.589844 273.800781 139.949219 274.179688 139.285156 274.46875 C 138.625 274.753906 137.945312 274.949219 137.261719 274.988281 C 136.796875 275.015625 136.332031 274.960938 135.875 274.84375 C 135.964844 274.789062 136.0625 274.730469 136.171875 274.664062 C 136.3125 274.574219 136.472656 274.476562 136.648438 274.367188 C 136.820312 274.253906 137.003906 274.128906 137.203125 273.992188 C 137.597656 273.722656 138.054688 273.417969 138.53125 273.050781 C 138.617188 272.984375 138.710938 272.914062 138.800781 272.847656 C 139.398438 272.839844 139.953125 272.792969 140.441406 272.722656 C 140.160156 272.945312 139.898438 273.140625 139.667969 273.316406 C 139.40625 273.523438 139.175781 273.695312 138.984375 273.832031 C 138.605469 274.117188 138.398438 274.273438 138.398438 274.273438 C 138.398438 274.273438 138.636719 274.15625 139.0625 273.945312 C 139.277344 273.84375 139.535156 273.710938 139.832031 273.546875 C 140.128906 273.382812 140.464844 273.203125 140.828125 272.980469 C 141.074219 272.839844 141.339844 272.675781 141.605469 272.503906 C 141.839844 272.449219 142.035156 272.398438 142.1875 272.351562 C 142.414062 272.28125 142.539062 272.242188 142.539062 272.242188 C 142.539062 272.242188 142.40625 272.230469 142.160156 272.214844 C 142.128906 272.214844 142.09375 272.210938 142.0625 272.210938 C 142.460938 271.945312 142.878906 271.660156 143.3125 271.347656 C 144.207031 270.683594 145.15625 269.914062 146.089844 269.042969 C 146.476562 268.683594 146.839844 268.320312 147.1875 267.960938 C 148.011719 267.628906 148.730469 267.28125 149.3125 266.960938 C 149.363281 266.933594 149.410156 266.90625 149.460938 266.878906 C 149.402344 266.976562 149.34375 267.070312 149.292969 267.15625 C 149.261719 267.207031 149.234375 267.25 149.207031 267.296875 C 147.355469 269.066406 145.296875 270.644531 143.160156 272.113281 Z M 140.074219 271.828125 C 140.417969 271.554688 140.757812 271.25 141.105469 270.933594 C 141.875 270.816406 142.566406 270.660156 143.160156 270.492188 C 143.042969 270.59375 142.925781 270.695312 142.8125 270.792969 C 142.21875 271.292969 141.664062 271.753906 141.15625 272.160156 C 141.148438 272.160156 141.140625 272.160156 141.132812 272.160156 C 140.738281 272.136719 140.277344 272.109375 139.777344 272.074219 C 139.875 271.992188 139.972656 271.914062 140.074219 271.828125 Z M 142.984375 269.097656 C 143.460938 269.027344 143.945312 268.933594 144.4375 268.820312 C 144.722656 268.757812 144.996094 268.683594 145.265625 268.609375 C 144.800781 269.035156 144.347656 269.449219 143.902344 269.839844 C 143.839844 269.847656 143.785156 269.851562 143.71875 269.859375 C 143.253906 269.902344 142.703125 269.949219 142.097656 270 C 142.394531 269.710938 142.6875 269.410156 142.984375 269.097656 Z M 144.382812 267.554688 C 144.417969 267.546875 144.453125 267.542969 144.488281 267.535156 C 145.390625 267.335938 146.355469 267.03125 147.320312 266.632812 C 147.082031 266.871094 146.835938 267.117188 146.582031 267.363281 C 145.839844 267.574219 145.035156 267.78125 144.1875 267.976562 C 144.113281 267.992188 144.042969 268.007812 143.96875 268.023438 C 144.109375 267.867188 144.246094 267.714844 144.382812 267.554688 Z M 148.175781 263.273438 C 148.808594 262.949219 149.390625 262.597656 149.929688 262.242188 C 149.820312 262.414062 149.714844 262.574219 149.609375 262.730469 C 149.191406 263.355469 148.84375 263.859375 148.59375 264.199219 C 148.351562 264.542969 148.214844 264.730469 148.214844 264.730469 C 148.214844 264.730469 148.390625 264.570312 148.707031 264.277344 C 149.023438 263.988281 149.460938 263.542969 149.980469 262.96875 C 150.445312 262.453125 150.960938 261.816406 151.492188 261.085938 C 151.851562 260.789062 152.175781 260.5 152.453125 260.234375 C 152.910156 259.789062 153.265625 259.417969 153.503906 259.140625 C 153.453125 259.25 153.40625 259.359375 153.355469 259.46875 C 152.582031 261.164062 151.804688 262.691406 151.117188 263.96875 C 150.792969 264.117188 150.453125 264.277344 150.089844 264.445312 C 150.15625 264.351562 150.226562 264.253906 150.289062 264.164062 C 150.75 263.488281 151.101562 262.933594 151.324219 262.539062 C 151.554688 262.152344 151.679688 261.933594 151.679688 261.933594 C 151.679688 261.933594 151.511719 262.125 151.207031 262.472656 C 150.910156 262.820312 150.46875 263.316406 149.921875 263.921875 C 149.628906 264.242188 149.300781 264.597656 148.949219 264.96875 C 148.339844 265.246094 147.695312 265.527344 147.023438 265.808594 C 146.417969 266.058594 145.828125 266.28125 145.261719 266.484375 C 145.988281 265.5625 146.632812 264.632812 147.210938 263.722656 C 147.53125 263.585938 147.855469 263.4375 148.175781 263.273438 Z M 149.976562 259.53125 C 150.71875 259.054688 151.402344 258.5625 152.023438 258.082031 C 152.035156 258.265625 152.046875 258.371094 152.046875 258.371094 C 152.046875 258.371094 152.113281 258.210938 152.21875 257.929688 C 152.332031 257.839844 152.449219 257.746094 152.5625 257.65625 C 151.988281 258.792969 151.402344 259.835938 150.855469 260.753906 C 150.042969 261.257812 149.097656 261.800781 148.066406 262.339844 C 148.25 262.007812 148.433594 261.683594 148.609375 261.367188 C 148.785156 261.046875 148.9375 260.726562 149.09375 260.421875 C 149.179688 260.253906 149.261719 260.089844 149.339844 259.929688 C 149.550781 259.800781 149.761719 259.667969 149.976562 259.53125 Z M 151.949219 256.621094 C 151.972656 256.605469 151.992188 256.59375 152.015625 256.582031 C 152.003906 256.789062 152 256.980469 152 257.15625 C 151.378906 257.570312 150.707031 258.011719 150 258.46875 C 150.148438 258.125 150.273438 257.792969 150.390625 257.488281 C 150.902344 257.222656 151.425781 256.9375 151.949219 256.621094 Z M 153.121094 254.769531 C 153.367188 253.578125 153.464844 252.515625 153.503906 251.851562 C 153.777344 251.65625 154.054688 251.460938 154.332031 251.253906 C 153.933594 252.554688 153.617188 253.746094 153.378906 254.707031 C 153.289062 254.765625 153.191406 254.824219 153.097656 254.886719 C 153.105469 254.847656 153.113281 254.808594 153.121094 254.769531 Z M 156.347656 246.867188 C 157.113281 246.070312 157.804688 245.273438 158.40625 244.523438 C 158.113281 245.4375 157.777344 246.582031 157.460938 247.863281 C 156.96875 248.222656 156.441406 248.605469 155.878906 249.019531 C 156.074219 248.21875 156.230469 247.484375 156.347656 246.867188 Z M 160.308594 239.941406 C 160.292969 240.417969 160.265625 240.910156 160.234375 241.417969 C 160.082031 241.589844 159.917969 241.773438 159.746094 241.972656 C 159.707031 242.011719 159.664062 242.058594 159.625 242.105469 C 159.691406 241.640625 159.746094 241.152344 159.777344 240.648438 C 159.96875 240.402344 160.148438 240.167969 160.308594 239.941406 Z M 157.355469 242.152344 C 157.398438 241.710938 157.417969 241.234375 157.402344 240.730469 C 157.386719 240.410156 157.359375 240.097656 157.320312 239.796875 C 157.65625 239.546875 157.996094 239.277344 158.335938 238.996094 C 158.558594 238.8125 158.769531 238.628906 158.972656 238.445312 C 158.964844 239.015625 158.949219 239.605469 158.925781 240.214844 C 158.917969 240.355469 158.910156 240.488281 158.90625 240.625 C 158.429688 241.101562 157.910156 241.617188 157.355469 242.152344 Z M 156.921875 237.957031 C 156.832031 237.660156 156.746094 237.414062 156.675781 237.230469 C 157.386719 236.90625 158.167969 236.496094 158.953125 235.996094 C 158.964844 236.40625 158.972656 236.855469 158.980469 237.332031 C 158.582031 237.65625 158.167969 237.992188 157.738281 238.347656 C 157.539062 238.511719 157.347656 238.675781 157.152344 238.835938 C 157.082031 238.507812 157.003906 238.214844 156.921875 237.957031 Z M 159.082031 234.195312 C 159.28125 234.125 159.480469 234.050781 159.679688 233.96875 C 159.652344 234.175781 159.632812 234.355469 159.617188 234.515625 C 159.492188 234.597656 159.363281 234.679688 159.238281 234.765625 C 159.183594 234.554688 159.132812 234.363281 159.082031 234.195312 Z M 159.847656 234.363281 C 159.898438 234.207031 159.960938 234.023438 160.03125 233.824219 C 160.640625 233.558594 161.191406 233.253906 161.671875 232.945312 C 161.652344 233.027344 161.628906 233.109375 161.613281 233.1875 C 161.097656 233.539062 160.5 233.9375 159.847656 234.363281 Z M 160.332031 239.160156 C 160.320312 239.171875 160.308594 239.183594 160.300781 239.195312 C 160.148438 239.351562 159.984375 239.519531 159.816406 239.695312 C 159.828125 239.011719 159.796875 238.355469 159.742188 237.738281 C 159.945312 237.542969 160.136719 237.355469 160.320312 237.167969 C 160.320312 237.183594 160.320312 237.199219 160.320312 237.21875 C 160.34375 237.785156 160.339844 238.441406 160.332031 239.160156 Z M 159.148438 246.636719 C 158.988281 246.753906 158.820312 246.875 158.632812 247.007812 C 158.570312 247.054688 158.5 247.105469 158.433594 247.15625 C 158.507812 246.738281 158.578125 246.339844 158.640625 245.960938 C 158.742188 245.691406 158.851562 245.375 158.96875 245.003906 C 159.128906 244.484375 159.292969 243.867188 159.433594 243.179688 C 159.683594 242.835938 159.910156 242.511719 160.113281 242.210938 C 160.140625 242.171875 160.160156 242.140625 160.183594 242.105469 C 160.179688 242.167969 160.175781 242.226562 160.171875 242.289062 C 160.164062 242.34375 160.160156 242.394531 160.15625 242.449219 C 159.820312 243.84375 159.484375 245.242188 159.148438 246.636719 Z M 157.832031 251.75 C 157.714844 251.828125 157.578125 251.921875 157.421875 252.03125 C 157.59375 251.304688 157.769531 250.523438 157.941406 249.703125 C 158.066406 249.101562 158.179688 248.515625 158.285156 247.953125 C 158.519531 247.730469 158.746094 247.515625 158.945312 247.320312 C 158.964844 247.304688 158.980469 247.289062 159 247.269531 C 158.976562 247.363281 158.953125 247.457031 158.933594 247.546875 C 158.585938 248.960938 158.226562 250.363281 157.832031 251.75 Z M 154.183594 259.773438 C 154.738281 258.550781 155.183594 257.347656 155.539062 256.234375 C 155.859375 255.195312 156.109375 254.242188 156.285156 253.414062 C 156.34375 253.359375 156.398438 253.3125 156.453125 253.261719 C 156.382812 253.804688 156.324219 254.308594 156.285156 254.753906 C 156.175781 255.871094 156.140625 256.617188 156.132812 256.824219 C 155.878906 257.464844 155.613281 258.101562 155.324219 258.722656 C 154.597656 260.308594 153.742188 261.804688 152.753906 263.210938 C 152.582031 263.289062 152.390625 263.375 152.183594 263.472656 C 152.859375 262.398438 153.554688 261.152344 154.183594 259.773438 Z M 153.402344 257.949219 C 153.683594 257.382812 153.929688 256.820312 154.15625 256.269531 C 154.21875 256.210938 154.289062 256.148438 154.347656 256.089844 C 154.628906 255.820312 154.871094 255.582031 155.078125 255.367188 C 154.996094 255.585938 154.910156 255.808594 154.820312 256.035156 C 154.464844 256.925781 154.058594 257.882812 153.621094 258.875 C 153.566406 258.914062 153.503906 258.957031 153.433594 259.011719 C 153.179688 259.199219 152.820312 259.453125 152.382812 259.753906 C 152.734375 259.1875 153.078125 258.589844 153.402344 257.949219 Z M 152.972656 256.503906 C 152.855469 256.582031 152.738281 256.664062 152.613281 256.746094 C 152.675781 256.539062 152.742188 256.316406 152.808594 256.082031 C 152.910156 256.015625 153.007812 255.949219 153.109375 255.882812 C 153.054688 256.125 153.007812 256.332031 152.972656 256.503906 Z M 155.539062 250.324219 C 155.503906 250.449219 155.460938 250.585938 155.410156 250.734375 C 155.453125 250.601562 155.488281 250.46875 155.527344 250.332031 C 155.53125 250.332031 155.535156 250.328125 155.539062 250.324219 Z M 155.242188 254.933594 C 155.023438 255.085938 154.761719 255.269531 154.457031 255.480469 C 154.539062 255.257812 154.617188 255.039062 154.6875 254.820312 C 154.699219 254.785156 154.710938 254.75 154.722656 254.714844 C 155.027344 254.480469 155.3125 254.246094 155.582031 254.023438 C 155.476562 254.316406 155.363281 254.617188 155.242188 254.933594 Z M 156.554688 251.144531 C 156.480469 251.382812 156.390625 251.671875 156.277344 252.007812 C 156.171875 252.320312 156.058594 252.675781 155.921875 253.0625 C 155.648438 253.246094 155.351562 253.441406 155.039062 253.648438 C 155.183594 253.109375 155.308594 252.601562 155.394531 252.144531 C 155.480469 251.761719 155.535156 251.40625 155.582031 251.097656 C 155.632812 250.789062 155.667969 250.519531 155.691406 250.300781 C 155.695312 250.261719 155.695312 250.230469 155.699219 250.195312 C 156.242188 249.761719 156.746094 249.335938 157.207031 248.929688 C 157.160156 249.140625 157.113281 249.355469 157.066406 249.574219 C 156.839844 250.671875 156.667969 251.707031 156.535156 252.644531 C 156.5 252.667969 156.464844 252.691406 156.429688 252.714844 C 156.554688 252.085938 156.640625 251.554688 156.691406 251.167969 C 156.753906 250.675781 156.789062 250.402344 156.789062 250.402344 C 156.789062 250.402344 156.703125 250.667969 156.554688 251.144531 Z M 157.324219 252.433594 C 157.496094 252.265625 157.640625 252.117188 157.761719 251.988281 C 157.304688 253.570312 156.796875 255.128906 156.203125 256.644531 C 156.300781 256.316406 156.488281 255.675781 156.722656 254.796875 C 156.902344 254.128906 157.109375 253.328125 157.324219 252.433594 Z M 149.058594 265.824219 C 149.597656 265.546875 150.097656 265.265625 150.554688 264.984375 C 150.472656 265.132812 150.390625 265.285156 150.308594 265.421875 C 150.117188 265.757812 149.941406 266.0625 149.78125 266.332031 C 149.574219 266.410156 149.351562 266.488281 149.101562 266.574219 C 148.816406 266.671875 148.503906 266.777344 148.171875 266.882812 C 148.488281 266.523438 148.785156 266.167969 149.058594 265.824219 Z M 150.382812 266.113281 C 150.355469 266.125 150.332031 266.132812 150.304688 266.144531 C 150.429688 265.980469 150.5625 265.8125 150.699219 265.628906 C 150.996094 265.238281 151.3125 264.792969 151.640625 264.304688 C 151.820312 264.1875 151.996094 264.074219 152.15625 263.964844 C 152.191406 263.941406 152.222656 263.917969 152.257812 263.894531 C 151.675781 264.667969 151.054688 265.40625 150.382812 266.113281 Z M 160.289062 236.289062 C 160.078125 236.457031 159.863281 236.625 159.636719 236.808594 C 159.578125 236.398438 159.511719 236.023438 159.441406 235.675781 C 159.714844 235.492188 159.972656 235.304688 160.21875 235.117188 C 160.226562 235.199219 160.234375 235.378906 160.25 235.648438 C 160.265625 235.828125 160.277344 236.042969 160.289062 236.289062 Z M 160.78125 231.707031 C 161.265625 231.5625 161.722656 231.40625 162.140625 231.25 C 162.0625 231.515625 161.988281 231.765625 161.921875 232.007812 C 161.46875 232.21875 160.964844 232.449219 160.425781 232.691406 C 160.53125 232.382812 160.652344 232.054688 160.78125 231.707031 Z M 162.644531 229.71875 C 162.5625 229.957031 162.480469 230.191406 162.40625 230.417969 C 162.019531 230.496094 161.597656 230.589844 161.15625 230.699219 C 161.261719 230.429688 161.367188 230.15625 161.476562 229.871094 C 161.890625 229.832031 162.28125 229.78125 162.644531 229.71875 Z M 161.96875 228.632812 C 162.011719 228.523438 162.054688 228.417969 162.097656 228.308594 C 162.492188 228.300781 162.859375 228.28125 163.203125 228.25 C 163.101562 228.5 163.007812 228.742188 162.914062 228.984375 C 162.574219 228.984375 162.207031 228.992188 161.820312 229.003906 C 161.867188 228.878906 161.917969 228.757812 161.96875 228.632812 Z M 162.671875 226.921875 C 163.054688 226.941406 163.421875 226.953125 163.765625 226.957031 C 163.710938 227.066406 163.660156 227.179688 163.609375 227.292969 C 163.558594 227.40625 163.515625 227.515625 163.464844 227.628906 C 163.140625 227.597656 162.785156 227.566406 162.414062 227.535156 C 162.5 227.328125 162.585938 227.121094 162.671875 226.921875 Z M 163.320312 225.402344 C 163.714844 225.464844 164.089844 225.511719 164.441406 225.550781 C 164.441406 225.554688 164.441406 225.5625 164.441406 225.570312 C 164.308594 225.820312 164.179688 226.082031 164.050781 226.347656 C 163.71875 226.289062 163.363281 226.230469 162.988281 226.171875 C 163.105469 225.902344 163.214844 225.648438 163.320312 225.402344 Z M 162.3125 218.261719 C 162.144531 218.171875 161.988281 218.085938 161.847656 218.007812 C 161.921875 217.835938 162.003906 217.628906 162.089844 217.394531 C 162.683594 217.742188 163.425781 218.132812 164.273438 218.511719 C 164.230469 218.738281 164.1875 218.964844 164.140625 219.199219 C 164.058594 219.160156 163.972656 219.117188 163.886719 219.078125 C 163.296875 218.785156 162.757812 218.511719 162.3125 218.261719 Z M 164.546875 216.988281 C 164.507812 217.21875 164.464844 217.460938 164.421875 217.707031 C 163.597656 217.421875 162.851562 217.171875 162.234375 216.957031 C 162.324219 216.671875 162.40625 216.351562 162.472656 216.011719 C 163.046875 216.296875 163.753906 216.636719 164.546875 216.988281 Z M 162.554688 215.535156 C 162.667969 214.746094 162.65625 214.007812 162.613281 213.433594 L 163.074219 213.871094 C 163.632812 214.378906 164.222656 214.855469 164.832031 215.296875 C 164.808594 215.441406 164.785156 215.585938 164.757812 215.746094 C 164.738281 215.886719 164.714844 216.03125 164.6875 216.183594 C 163.882812 215.917969 163.148438 215.714844 162.550781 215.566406 C 162.550781 215.554688 162.554688 215.546875 162.554688 215.535156 Z M 164.332031 208.125 C 164.117188 208.652344 163.9375 209.140625 163.796875 209.5625 C 163.671875 209.941406 163.578125 210.257812 163.503906 210.507812 L 163.355469 210.347656 C 163.191406 210.152344 163.027344 209.949219 162.867188 209.742188 C 162.929688 209.714844 162.996094 209.675781 163.050781 209.617188 C 163.515625 209.144531 163.941406 208.644531 164.332031 208.125 Z M 183.164062 170.769531 C 184.0625 168.597656 184.929688 166.425781 185.808594 164.21875 C 187.550781 159.8125 189.308594 155.347656 190.988281 150.789062 C 191.824219 148.511719 192.632812 146.210938 193.390625 143.890625 C 194.15625 141.574219 194.847656 139.214844 195.496094 136.886719 C 196.800781 132.230469 197.972656 127.628906 199.597656 123.308594 C 201.210938 119 203.28125 114.945312 206.117188 111.644531 C 208.050781 109.375 210.335938 107.484375 212.792969 106 C 211.355469 107.164062 210.074219 108.472656 208.898438 109.832031 C 207.332031 111.648438 205.902344 113.527344 204.570312 115.496094 C 203.242188 117.457031 202.054688 119.523438 201.035156 121.652344 C 198.988281 125.914062 197.578125 130.375 196.253906 134.804688 C 194.953125 139.246094 193.609375 143.640625 192.132812 148.007812 C 190.667969 152.378906 189.066406 156.699219 187.371094 160.996094 C 185.667969 165.289062 183.871094 169.554688 181.933594 173.777344 C 181.636719 174.429688 181.332031 175.078125 181.03125 175.726562 C 181.75 174.09375 182.464844 172.445312 183.164062 170.769531 Z M 235.070312 106.976562 C 235.046875 107.242188 235.011719 107.511719 234.972656 107.785156 C 234.929688 107.730469 234.886719 107.675781 234.84375 107.625 C 234.59375 107.328125 234.367188 107.011719 234.082031 106.738281 L 233.265625 105.902344 L 232.882812 105.582031 C 232.941406 105.269531 232.996094 104.949219 233.039062 104.601562 C 233.054688 104.46875 233.070312 104.332031 233.082031 104.1875 C 233.820312 104.90625 234.457031 105.773438 235.046875 106.691406 C 235.058594 106.714844 235.074219 106.734375 235.085938 106.753906 C 235.082031 106.832031 235.074219 106.902344 235.070312 106.976562 Z M 175.941406 206.222656 C 175.144531 207.132812 174.125 208.476562 173.242188 210.125 C 172.914062 210.738281 172.628906 211.34375 172.386719 211.925781 C 172.253906 211.859375 172.125 211.792969 172.007812 211.734375 C 171.988281 211.722656 171.96875 211.710938 171.949219 211.703125 C 172.285156 211.085938 172.636719 210.429688 172.996094 209.746094 C 173.925781 207.976562 174.710938 206.367188 175.265625 205.199219 C 175.644531 205.375 176.019531 205.546875 176.394531 205.71875 C 176.253906 205.867188 176.105469 206.035156 175.941406 206.222656 Z M 177.03125 206.964844 C 176.34375 207.890625 175.449219 209.21875 174.636719 210.792969 C 174.316406 211.417969 174.03125 212.03125 173.78125 212.617188 C 173.542969 212.503906 173.316406 212.390625 173.097656 212.28125 C 173.390625 211.714844 173.707031 211.117188 174.039062 210.5 C 174.902344 208.890625 175.714844 207.46875 176.316406 206.453125 C 176.453125 206.230469 176.570312 206.027344 176.679688 205.84375 C 176.980469 205.980469 177.28125 206.113281 177.582031 206.246094 C 177.421875 206.449219 177.234375 206.6875 177.03125 206.964844 Z M 177.902344 207.195312 C 177.441406 207.765625 176.894531 208.503906 176.347656 209.371094 C 176.765625 208.53125 177.128906 207.777344 177.421875 207.164062 C 177.574219 206.851562 177.699219 206.582031 177.808594 206.347656 L 178.355469 206.589844 L 178.394531 206.605469 C 178.25 206.777344 178.082031 206.972656 177.902344 207.195312 Z M 178.648438 206.71875 C 178.664062 206.722656 178.679688 206.730469 178.6875 206.734375 L 178.910156 206.8125 C 178.980469 206.839844 179.058594 206.871094 179.132812 206.898438 C 179.0625 206.984375 178.988281 207.070312 178.910156 207.167969 C 178.34375 207.867188 177.65625 208.804688 176.976562 209.90625 C 177.484375 208.941406 177.933594 208.082031 178.289062 207.410156 C 178.421875 207.148438 178.542969 206.917969 178.648438 206.71875 Z M 175.203125 213.289062 C 175.261719 213.175781 175.324219 213.058594 175.382812 212.941406 C 175.332031 213.0625 175.28125 213.183594 175.230469 213.300781 C 175.21875 213.296875 175.210938 213.292969 175.203125 213.289062 Z M 174.738281 214.53125 C 174.683594 214.515625 174.628906 214.496094 174.574219 214.480469 C 174.65625 214.324219 174.742188 214.164062 174.828125 213.996094 C 174.863281 214.007812 174.898438 214.015625 174.933594 214.023438 C 174.863281 214.199219 174.800781 214.367188 174.738281 214.53125 Z M 175.347656 214.722656 C 175.441406 214.546875 175.539062 214.367188 175.636719 214.179688 C 175.886719 214.222656 176.117188 214.25 176.324219 214.261719 C 176.335938 214.265625 176.347656 214.265625 176.359375 214.265625 C 176.222656 214.480469 176.078125 214.695312 175.9375 214.90625 C 175.761719 214.851562 175.5625 214.789062 175.347656 214.722656 Z M 174.097656 216.496094 C 173.917969 216.464844 173.746094 216.429688 173.570312 216.394531 C 173.714844 216.117188 173.925781 215.710938 174.195312 215.207031 C 174.292969 215.222656 174.390625 215.234375 174.484375 215.25 C 174.429688 215.40625 174.378906 215.5625 174.332031 215.707031 C 174.242188 216 174.164062 216.261719 174.097656 216.496094 Z M 174.492188 212.957031 C 174.53125 212.886719 174.570312 212.816406 174.605469 212.742188 C 174.574219 212.816406 174.542969 212.894531 174.515625 212.96875 C 174.507812 212.964844 174.5 212.960938 174.492188 212.957031 Z M 174.078125 213.726562 C 174.121094 213.746094 174.164062 213.761719 174.207031 213.78125 C 174.140625 213.964844 174.082031 214.140625 174.027344 214.308594 C 173.949219 214.285156 173.875 214.261719 173.800781 214.238281 C 173.890625 214.074219 173.984375 213.902344 174.078125 213.726562 Z M 172.339844 213.785156 C 172.46875 213.523438 172.605469 213.25 172.75 212.96875 C 172.964844 213.125 173.199219 213.277344 173.453125 213.421875 C 173.367188 213.636719 173.285156 213.851562 173.210938 214.054688 C 172.90625 213.960938 172.613281 213.871094 172.339844 213.785156 Z M 170.8125 213.746094 C 170.828125 213.757812 170.84375 213.769531 170.863281 213.785156 C 171.058594 213.933594 171.296875 214.089844 171.5625 214.246094 C 171.527344 214.359375 171.496094 214.472656 171.46875 214.578125 C 171.34375 215.019531 171.253906 215.402344 171.1875 215.707031 C 170.777344 215.558594 170.371094 215.390625 169.972656 215.214844 C 170.199219 214.820312 170.484375 214.324219 170.8125 213.746094 Z M 168.664062 217.871094 C 168.660156 217.832031 168.652344 217.789062 168.648438 217.75 C 168.632812 217.664062 168.621094 217.585938 168.605469 217.503906 C 169.195312 217.769531 169.792969 218.015625 170.40625 218.230469 L 170.570312 218.285156 C 170.535156 218.378906 170.464844 218.574219 170.375 218.84375 C 169.964844 218.589844 169.378906 218.246094 168.664062 217.871094 Z M 169.945312 219.707031 C 169.601562 219.578125 169.207031 219.429688 168.78125 219.273438 C 168.777344 219.039062 168.765625 218.8125 168.746094 218.597656 C 169.375 218.804688 169.90625 218.964844 170.300781 219.078125 C 170.238281 219.277344 170.167969 219.507812 170.09375 219.761719 C 170.042969 219.746094 170 219.726562 169.945312 219.707031 Z M 169.734375 221.207031 C 169.714844 221.292969 169.699219 221.375 169.683594 221.457031 C 169.605469 221.433594 169.527344 221.40625 169.445312 221.378906 C 169.214844 221.300781 168.964844 221.214844 168.703125 221.117188 C 168.746094 220.714844 168.773438 220.324219 168.785156 219.949219 C 169.175781 220.027344 169.542969 220.09375 169.867188 220.140625 C 169.910156 220.148438 169.945312 220.152344 169.988281 220.160156 C 169.898438 220.484375 169.8125 220.839844 169.734375 221.207031 Z M 170.742188 220.253906 C 170.851562 220.265625 170.949219 220.277344 171.039062 220.28125 L 170.679688 220.875 C 170.710938 220.664062 170.730469 220.453125 170.742188 220.253906 Z M 168.351562 222.929688 C 168.738281 222.953125 169.058594 222.960938 169.289062 222.957031 C 169.339844 222.957031 169.382812 222.957031 169.425781 222.953125 L 168.714844 224.136719 C 168.511719 224.097656 168.269531 224.054688 168.003906 224.003906 C 168.128906 223.664062 168.246094 223.308594 168.351562 222.929688 Z M 165.703125 225.207031 C 165.644531 225.191406 165.578125 225.171875 165.515625 225.15625 C 165.644531 224.863281 165.769531 224.578125 165.886719 224.308594 C 166.324219 224.347656 166.730469 224.371094 167.105469 224.382812 C 166.988281 224.796875 166.871094 225.179688 166.761719 225.519531 C 166.5 225.441406 166.140625 225.332031 165.703125 225.207031 Z M 165.308594 225.625 C 165.429688 225.632812 165.550781 225.640625 165.664062 225.648438 C 166.09375 225.667969 166.445312 225.675781 166.710938 225.679688 C 166.699219 225.710938 166.6875 225.746094 166.675781 225.777344 C 166.539062 226.1875 166.421875 226.523438 166.324219 226.78125 C 166.0625 226.726562 165.574219 226.625 164.921875 226.503906 C 165.050781 226.203125 165.179688 225.910156 165.308594 225.625 Z M 163.855469 224.195312 C 163.886719 224.132812 163.910156 224.078125 163.9375 224.019531 C 164.167969 224.066406 164.394531 224.105469 164.617188 224.144531 C 164.585938 224.402344 164.550781 224.652344 164.523438 224.882812 C 164.246094 224.808594 163.957031 224.730469 163.652344 224.652344 C 163.722656 224.496094 163.792969 224.339844 163.855469 224.195312 Z M 164.855469 222.40625 C 164.8125 222.71875 164.769531 223.019531 164.730469 223.3125 C 164.589844 223.277344 164.449219 223.246094 164.308594 223.210938 C 164.542969 222.691406 164.683594 222.390625 164.683594 222.390625 C 164.683594 222.390625 164.558594 222.542969 164.339844 222.8125 C 164.261719 222.910156 164.167969 223.027344 164.070312 223.15625 C 164.042969 223.148438 164.011719 223.144531 163.984375 223.132812 C 164.089844 222.859375 164.195312 222.570312 164.296875 222.257812 C 164.484375 222.3125 164.671875 222.363281 164.855469 222.40625 Z M 165.128906 220.617188 C 165.082031 220.90625 165.035156 221.199219 164.992188 221.5 C 164.988281 221.519531 164.984375 221.535156 164.984375 221.550781 C 164.839844 221.507812 164.695312 221.464844 164.546875 221.421875 C 164.636719 221.109375 164.714844 220.785156 164.789062 220.449219 C 164.902344 220.507812 165.015625 220.5625 165.128906 220.617188 Z M 165.402344 218.976562 C 165.363281 219.214844 165.316406 219.46875 165.273438 219.726562 C 165.167969 219.675781 165.0625 219.628906 164.957031 219.582031 C 164.996094 219.332031 165.035156 219.085938 165.066406 218.84375 C 165.175781 218.890625 165.289062 218.933594 165.402344 218.976562 Z M 165.667969 217.46875 C 165.652344 217.546875 165.636719 217.625 165.621094 217.710938 C 165.601562 217.835938 165.578125 217.964844 165.554688 218.101562 C 165.417969 218.054688 165.285156 218.007812 165.152344 217.960938 C 165.171875 217.726562 165.1875 217.492188 165.195312 217.269531 C 165.351562 217.335938 165.507812 217.402344 165.667969 217.46875 Z M 166.089844 218.292969 C 166.085938 218.292969 166.082031 218.289062 166.078125 218.289062 C 166.078125 218.09375 166.070312 217.90625 166.0625 217.734375 C 166.0625 217.695312 166.058594 217.660156 166.058594 217.625 C 166.8125 217.925781 167.523438 218.183594 168.167969 218.40625 C 168.152344 218.605469 168.132812 218.808594 168.113281 219.023438 C 167.488281 218.796875 166.808594 218.546875 166.089844 218.292969 Z M 166.035156 220.058594 C 166.054688 219.769531 166.066406 219.488281 166.074219 219.214844 C 166.757812 219.449219 167.421875 219.636719 168.03125 219.785156 C 167.988281 220.117188 167.9375 220.457031 167.882812 220.8125 C 167.308594 220.59375 166.683594 220.339844 166.035156 220.058594 Z M 167.699219 221.871094 C 167.667969 222.027344 167.636719 222.179688 167.605469 222.332031 C 167.367188 222.261719 167.117188 222.1875 166.851562 222.109375 C 166.972656 221.824219 167.082031 221.574219 167.164062 221.382812 C 167.371094 221.4375 167.566406 221.488281 167.757812 221.535156 C 167.738281 221.644531 167.71875 221.757812 167.699219 221.871094 Z M 166.546875 222.8125 C 166.558594 222.789062 166.566406 222.769531 166.574219 222.75 C 166.898438 222.796875 167.203125 222.835938 167.488281 222.863281 C 167.410156 223.210938 167.328125 223.539062 167.246094 223.855469 C 166.917969 223.789062 166.5625 223.714844 166.183594 223.632812 C 166.3125 223.34375 166.4375 223.0625 166.546875 222.8125 Z M 165.867188 221.597656 C 165.898438 221.386719 165.925781 221.179688 165.949219 220.972656 C 166.316406 221.113281 166.675781 221.238281 167.027344 221.339844 C 166.898438 221.523438 166.734375 221.75 166.550781 222.019531 C 166.320312 221.953125 166.082031 221.878906 165.832031 221.804688 C 165.84375 221.734375 165.855469 221.667969 165.867188 221.597656 Z M 165.476562 223.480469 C 165.550781 223.199219 165.621094 222.902344 165.6875 222.59375 C 165.832031 222.625 165.976562 222.648438 166.117188 222.675781 C 165.953125 222.929688 165.777344 223.207031 165.597656 223.507812 C 165.558594 223.5 165.519531 223.488281 165.476562 223.480469 Z M 169.453125 222.863281 C 169.40625 222.851562 169.359375 222.835938 169.300781 222.820312 C 169.082031 222.757812 168.792969 222.675781 168.445312 222.574219 C 168.492188 222.382812 168.535156 222.191406 168.570312 221.996094 C 168.589844 221.898438 168.601562 221.804688 168.617188 221.710938 C 168.890625 221.753906 169.148438 221.789062 169.378906 221.8125 C 169.460938 221.824219 169.535156 221.828125 169.609375 221.835938 C 169.542969 222.207031 169.492188 222.558594 169.453125 222.863281 Z M 165.023438 210.871094 C 165.609375 209.875 166.410156 208.503906 167.285156 207.011719 C 168.144531 205.515625 168.914062 204.175781 169.46875 203.210938 C 169.617188 202.953125 169.746094 202.726562 169.859375 202.523438 L 170.480469 202.847656 C 170.699219 202.960938 170.921875 203.070312 171.140625 203.183594 C 171.117188 203.207031 171.09375 203.226562 171.066406 203.25 C 170.8125 203.480469 170.464844 203.824219 170.054688 204.273438 C 169.234375 205.171875 168.1875 206.519531 167.324219 208.191406 C 166.484375 209.816406 165.988281 211.421875 165.722656 212.621094 C 165.433594 212.390625 165.148438 212.152344 164.875 211.90625 L 164.578125 211.621094 C 164.707031 211.40625 164.855469 211.15625 165.023438 210.871094 Z M 219.105469 104.855469 C 220.25 104.472656 221.449219 104.253906 222.65625 104.199219 L 222.226562 104.675781 C 215.976562 111.59375 210.875 119.253906 206.460938 127.144531 C 202.042969 135.042969 198.308594 143.199219 194.757812 151.410156 C 191.199219 159.621094 187.769531 167.878906 184.023438 176.070312 C 180.269531 184.253906 176.203125 192.386719 171.339844 200.175781 C 171.273438 200.28125 171.210938 200.386719 171.152344 200.484375 C 170.578125 200.160156 170 199.832031 169.425781 199.503906 C 171.535156 196.570312 173.59375 193.394531 175.628906 190.03125 C 177.765625 186.46875 179.835938 182.6875 181.835938 178.746094 C 185.8125 170.851562 189.480469 162.296875 192.625 153.476562 C 194.203125 149.066406 195.667969 144.597656 196.996094 140.117188 C 198.324219 135.640625 199.511719 131.214844 201.078125 127.042969 C 201.855469 124.949219 202.734375 122.933594 203.734375 121.011719 C 204.734375 119.085938 205.882812 117.257812 207.117188 115.515625 C 209.617188 112.050781 212.292969 108.777344 215.519531 106.625 C 216.644531 105.886719 217.839844 105.261719 219.105469 104.855469 Z M 228.710938 102.101562 C 229.386719 102.203125 230.042969 102.363281 230.660156 102.597656 C 230.703125 102.617188 230.742188 102.636719 230.789062 102.65625 C 230.796875 102.695312 230.804688 102.730469 230.8125 102.769531 C 230.824219 102.867188 230.832031 102.964844 230.839844 103.066406 L 230.417969 103.585938 C 230.371094 103.640625 230.328125 103.699219 230.285156 103.757812 C 229.980469 103.59375 229.683594 103.417969 229.367188 103.28125 L 228.269531 102.835938 C 227.960938 102.722656 227.644531 102.621094 227.328125 102.53125 C 227.503906 102.355469 227.679688 102.179688 227.851562 102.015625 C 228.140625 102.035156 228.425781 102.0625 228.710938 102.101562 Z M 198.289062 176.136719 C 194.785156 180.433594 191.085938 184.5625 187.183594 188.480469 C 186.195312 189.449219 185.234375 190.4375 184.226562 191.394531 C 183.230469 192.355469 182.234375 193.328125 181.253906 194.3125 C 179.300781 196.289062 177.40625 198.328125 175.710938 200.535156 C 175.1875 201.21875 174.808594 201.851562 174.558594 202.378906 C 174.453125 202.324219 174.351562 202.265625 174.246094 202.207031 C 174.597656 201.609375 174.945312 201.007812 175.300781 200.394531 C 187.152344 184.980469 198.359375 168.410156 209.535156 152.035156 C 212.257812 148.042969 215.019531 144.046875 217.679688 139.957031 C 220.339844 135.867188 222.90625 131.683594 225.171875 127.316406 L 226.019531 125.675781 C 226.292969 125.125 226.554688 124.566406 226.820312 124.011719 C 227.371094 122.90625 227.851562 121.769531 228.347656 120.636719 C 228.601562 120.078125 228.824219 119.5 229.050781 118.925781 L 229.730469 117.199219 L 230.339844 115.445312 C 230.539062 114.859375 230.757812 114.28125 230.921875 113.683594 C 231.273438 112.496094 231.648438 111.316406 231.921875 110.105469 C 232.070312 109.5 232.222656 108.902344 232.363281 108.296875 L 232.371094 108.246094 C 232.707031 108.605469 233.03125 108.976562 233.324219 109.375 C 233.699219 109.886719 234.050781 110.421875 234.375 110.972656 C 234.375 110.976562 234.375 110.980469 234.375 110.980469 C 233.769531 113.648438 232.921875 116.265625 231.925781 118.835938 C 229.929688 123.972656 227.421875 128.960938 224.949219 133.941406 C 222.449219 138.910156 219.832031 143.824219 217.042969 148.636719 C 211.460938 158.253906 205.289062 167.535156 198.289062 176.136719 Z M 175.910156 196.730469 C 175.230469 197.753906 174.546875 198.773438 173.863281 199.792969 C 173.453125 200.410156 173.128906 200.972656 172.890625 201.460938 C 172.648438 201.324219 172.402344 201.191406 172.160156 201.058594 C 172.074219 201.007812 171.988281 200.957031 171.902344 200.910156 C 174.699219 197.199219 177.371094 193.027344 179.917969 188.535156 C 178.566406 191.246094 177.234375 193.980469 175.910156 196.730469 Z M 185.628906 181.789062 C 187.703125 178.074219 189.898438 174.347656 192.253906 170.613281 C 194.601562 166.875 197.074219 163.125 199.570312 159.347656 C 204.5625 151.796875 209.628906 144.085938 213.855469 136.203125 C 215.972656 132.273438 217.933594 128.371094 219.890625 124.613281 C 221.851562 120.859375 223.820312 117.25 225.890625 113.898438 C 227.234375 111.734375 228.652344 109.617188 230.15625 107.5625 L 230.089844 107.894531 L 229.644531 109.65625 C 229.375 110.832031 228.980469 111.980469 228.640625 113.140625 C 227.160156 117.757812 225.132812 122.199219 222.847656 126.503906 C 218.246094 135.113281 212.515625 143.109375 206.945312 151.207031 C 199.25 162.351562 191.589844 173.507812 184.03125 184.671875 C 184.558594 183.714844 185.089844 182.753906 185.628906 181.789062 Z M 224.3125 105.632812 C 224.695312 105.207031 225.089844 104.792969 225.492188 104.382812 C 225.984375 104.472656 226.472656 104.589844 226.953125 104.738281 C 227.617188 104.972656 228.277344 105.238281 228.910156 105.558594 C 228.558594 106.023438 228.214844 106.496094 227.882812 106.972656 C 225.15625 110.796875 222.8125 114.804688 220.597656 118.824219 C 218.394531 122.851562 216.339844 126.910156 214.238281 130.914062 C 212.140625 134.917969 209.96875 138.851562 207.625 142.683594 C 205.285156 146.523438 202.835938 150.289062 200.363281 154.042969 C 195.414062 161.550781 190.363281 169.019531 185.960938 176.960938 C 185.832031 177.195312 185.707031 177.429688 185.582031 177.664062 C 188.824219 170.949219 191.878906 163.863281 194.921875 156.746094 C 198.460938 148.460938 202.042969 140.164062 206.074219 132.394531 C 208.085938 128.511719 210.199219 124.757812 212.421875 121.210938 C 214.648438 117.664062 217.007812 114.339844 219.449219 111.28125 L 220.613281 109.828125 L 221.824219 108.414062 C 222.234375 107.945312 222.625 107.464844 223.046875 107.003906 Z M 171.765625 212.101562 C 171.878906 212.222656 172.011719 212.355469 172.15625 212.488281 C 172.007812 212.878906 171.875 213.25 171.761719 213.605469 C 171.492188 213.523438 171.25 213.445312 171.035156 213.378906 C 171.03125 213.378906 171.027344 213.378906 171.023438 213.375 C 171.25 212.972656 171.492188 212.535156 171.746094 212.074219 C 171.753906 212.085938 171.757812 212.09375 171.765625 212.101562 Z M 171.207031 211.414062 C 170.917969 212.046875 170.667969 212.648438 170.449219 213.199219 C 170.191406 213.121094 170.042969 213.078125 170.042969 213.078125 C 170.042969 213.078125 170.15625 213.199219 170.371094 213.390625 C 170.269531 213.652344 170.175781 213.902344 170.089844 214.132812 C 169.953125 214.503906 169.839844 214.828125 169.742188 215.113281 C 169.113281 214.820312 168.496094 214.5 167.898438 214.144531 C 167.273438 213.769531 166.675781 213.355469 166.09375 212.914062 C 166.105469 212.890625 166.113281 212.871094 166.121094 212.847656 C 166.589844 211.710938 167.285156 210.175781 168.128906 208.554688 C 168.96875 206.929688 169.796875 205.519531 170.425781 204.511719 C 170.738281 204.011719 170.996094 203.605469 171.179688 203.332031 C 171.203125 203.292969 171.21875 203.265625 171.242188 203.230469 C 172.425781 203.835938 173.613281 204.425781 174.816406 204.992188 C 174.832031 205 174.847656 205.007812 174.867188 205.015625 C 174.109375 206.089844 173.125 207.609375 172.191406 209.386719 C 171.84375 210.050781 171.523438 210.707031 171.242188 211.335938 C 171.15625 211.289062 171.109375 211.265625 171.109375 211.265625 C 171.109375 211.265625 171.140625 211.320312 171.207031 211.414062 Z M 166.058594 206.523438 C 167.414062 203.996094 168.285156 201.890625 168.285156 201.890625 C 168.285156 201.890625 167.875 202.3125 167.289062 203.054688 C 167.230469 203.132812 167.167969 203.214844 167.101562 203.296875 C 167.417969 202.613281 167.945312 201.492188 167.785156 201.714844 C 167.785156 201.671875 167.792969 201.617188 167.804688 201.550781 C 167.832031 201.546875 167.871094 201.550781 167.921875 201.558594 L 167.996094 201.574219 L 168.019531 201.578125 L 168.03125 201.582031 C 168.035156 201.582031 168.03125 201.578125 168.0625 201.59375 L 168.328125 201.734375 L 169.613281 202.398438 C 169.457031 202.566406 169.28125 202.765625 169.09375 202.984375 C 168.347656 203.84375 167.378906 205.097656 166.503906 206.609375 C 165.621094 208.125 165.003906 209.601562 164.617188 210.695312 C 164.523438 210.964844 164.441406 211.207031 164.371094 211.425781 L 164.195312 211.253906 L 163.632812 210.644531 C 164.09375 209.925781 165.066406 208.359375 166.058594 206.523438 Z M 165.191406 215.550781 C 165.625 215.855469 166.070312 216.148438 166.527344 216.421875 C 167.078125 216.75 167.648438 217.050781 168.230469 217.328125 C 168.226562 217.425781 168.21875 217.53125 168.214844 217.640625 C 167.625 217.347656 166.964844 217.042969 166.253906 216.757812 C 166.164062 216.71875 166.074219 216.6875 165.984375 216.652344 C 165.953125 216.308594 165.921875 216.113281 165.921875 216.113281 C 165.921875 216.113281 165.886719 216.285156 165.828125 216.589844 C 165.621094 216.511719 165.414062 216.433594 165.210938 216.363281 C 165.210938 216.152344 165.207031 215.949219 165.199219 215.765625 C 165.199219 215.6875 165.195312 215.621094 165.191406 215.550781 Z M 172.191406 216.046875 L 171.382812 215.78125 C 171.519531 215.492188 171.6875 215.136719 171.886719 214.722656 C 171.921875 214.644531 171.960938 214.5625 172 214.484375 C 172.28125 214.628906 172.589844 214.761719 172.921875 214.878906 C 172.910156 214.921875 172.894531 214.960938 172.882812 215.003906 C 172.734375 215.457031 172.617188 215.839844 172.535156 216.140625 C 172.398438 216.105469 172.277344 216.070312 172.191406 216.046875 Z M 174.386719 216.550781 C 174.496094 216.34375 174.613281 216.117188 174.746094 215.867188 C 174.839844 215.6875 174.941406 215.496094 175.042969 215.300781 C 175.265625 215.3125 175.472656 215.316406 175.664062 215.3125 C 175.359375 215.75 175.046875 216.183594 174.714844 216.613281 C 174.605469 216.59375 174.496094 216.574219 174.386719 216.550781 Z M 237.039062 120.914062 L 237.050781 121.429688 L 237.027344 121.945312 C 237.011719 122.289062 237.007812 122.632812 236.980469 122.976562 C 236.90625 123.664062 236.851562 124.355469 236.726562 125.042969 C 236.636719 125.730469 236.472656 126.410156 236.335938 127.089844 C 236.15625 127.765625 236.007812 128.445312 235.789062 129.109375 C 234.992188 131.789062 233.84375 134.367188 232.519531 136.851562 C 229.851562 141.824219 226.402344 146.386719 222.859375 150.835938 C 219.289062 155.273438 215.492188 159.53125 211.582031 163.683594 C 210.636719 164.6875 209.6875 165.683594 208.730469 166.675781 C 211.195312 163.132812 213.550781 159.515625 215.773438 155.835938 C 221.59375 146.253906 226.75 136.289062 231.429688 126.109375 C 233.144531 122.328125 234.757812 118.425781 235.90625 114.351562 C 236.625 116.457031 237.011719 118.679688 237.039062 120.914062 Z M 242.53125 116.195312 C 241.519531 113.207031 240.003906 110.527344 238.492188 107.957031 C 238.136719 107.359375 237.777344 106.753906 237.402344 106.140625 C 237.40625 105.945312 237.402344 105.746094 237.394531 105.546875 C 237.382812 105.148438 237.351562 104.742188 237.28125 104.332031 C 237.265625 104.226562 237.25 104.125 237.222656 104.023438 C 237.203125 103.929688 237.179688 103.789062 237.136719 103.644531 C 237.058594 103.363281 236.980469 103.078125 236.867188 102.8125 C 236.453125 101.71875 235.78125 100.835938 234.78125 100.550781 C 234.277344 100.40625 233.742188 100.472656 233.292969 100.675781 C 233.070312 100.773438 232.851562 100.90625 232.644531 101.0625 C 232.640625 101.0625 232.636719 101.058594 232.632812 101.054688 C 232.453125 100.691406 232.226562 100.355469 231.945312 100.046875 C 231.796875 99.878906 231.621094 99.722656 231.4375 99.578125 C 231.34375 99.507812 231.238281 99.4375 231.128906 99.363281 C 231.015625 99.300781 230.90625 99.234375 230.789062 99.183594 C 230.328125 98.964844 229.820312 98.847656 229.3125 98.863281 C 229.019531 98.875 228.730469 98.921875 228.453125 99.007812 C 228.382812 99.03125 228.316406 99.050781 228.246094 99.074219 L 228.042969 99.15625 C 227.925781 99.210938 227.804688 99.265625 227.699219 99.328125 C 227.453125 99.464844 227.242188 99.613281 227.046875 99.761719 C 226.34375 99.753906 225.648438 99.78125 224.96875 99.847656 L 223.816406 99.960938 L 222.671875 100.128906 C 220.132812 100.527344 217.675781 101.289062 215.347656 102.289062 C 213.027344 103.320312 210.832031 104.613281 208.84375 106.15625 C 206.867188 107.707031 205.058594 109.484375 203.546875 111.464844 C 202.023438 113.433594 200.742188 115.5625 199.65625 117.761719 C 197.480469 122.164062 196.039062 126.804688 194.722656 131.417969 C 194.066406 133.726562 193.4375 136.035156 192.765625 138.324219 C 192.097656 140.617188 191.367188 142.886719 190.59375 145.148438 C 189.046875 149.664062 187.328125 154.128906 185.605469 158.601562 C 183.875 163.070312 182.160156 167.5625 180.355469 172.027344 C 178.539062 176.488281 176.617188 180.925781 174.578125 185.339844 C 172.542969 189.75 170.386719 194.140625 168.046875 198.460938 C 168.007812 198.53125 167.976562 198.597656 167.941406 198.664062 C 167.542969 198.4375 167.148438 198.214844 166.753906 197.992188 L 165.882812 199.722656 L 165.152344 201.207031 C 164.75 202.035156 164.351562 202.871094 163.96875 203.710938 C 163.238281 205.300781 162.550781 206.90625 161.929688 208.539062 L 161.707031 208.246094 C 161.683594 208.257812 161.65625 208.234375 161.636719 208.269531 L 161.445312 208.625 L 160.683594 210.042969 L 159.707031 211.859375 L 158.207031 214.679688 C 157.214844 216.566406 156.222656 218.445312 155.230469 220.328125 C 153.253906 224.089844 151.296875 227.859375 149.367188 231.628906 C 148.445312 233.4375 148.554688 234.664062 149.359375 234.074219 C 148.667969 234.902344 147.929688 235.890625 147.238281 237.011719 C 146.117188 238.835938 145.347656 240.644531 144.882812 241.980469 C 144.652344 242.648438 144.484375 243.199219 144.382812 243.582031 C 144.28125 243.964844 144.226562 244.179688 144.226562 244.179688 C 144.226562 244.179688 144.328125 243.980469 144.511719 243.625 C 144.691406 243.269531 144.960938 242.761719 145.296875 242.140625 C 145.960938 240.894531 146.914062 239.214844 148.019531 237.425781 C 149.121094 235.636719 150.164062 234.078125 150.941406 232.960938 C 151.726562 231.851562 152.207031 231.171875 152.207031 231.171875 C 152.207031 231.171875 152.046875 231.3125 151.757812 231.570312 C 151.46875 231.824219 151.0625 232.210938 150.578125 232.710938 C 150.453125 232.839844 150.324219 232.980469 150.191406 233.125 C 150.234375 233.058594 150.28125 232.992188 150.328125 232.917969 C 152.671875 229.296875 154.925781 225.578125 157.117188 221.800781 C 158.214844 219.910156 159.296875 218.007812 160.367188 216.089844 C 160.898438 215.132812 161.429688 214.171875 161.960938 213.207031 L 162.0625 213.027344 L 162.105469 212.949219 L 162.105469 212.953125 L 162.105469 212.945312 C 162.109375 212.949219 162.097656 212.933594 162.117188 212.949219 L 162.210938 213.042969 C 162.042969 213.609375 161.828125 214.433594 161.691406 215.363281 C 161.238281 215.269531 160.972656 215.222656 160.972656 215.222656 C 160.972656 215.222656 161.222656 215.367188 161.660156 215.59375 C 161.605469 215.996094 161.574219 216.378906 161.554688 216.730469 C 161.320312 216.648438 161.113281 216.582031 160.953125 216.527344 C 160.660156 216.429688 160.5 216.378906 160.5 216.378906 C 160.5 216.378906 160.636719 216.476562 160.890625 216.648438 C 161.058594 216.761719 161.28125 216.90625 161.539062 217.066406 C 161.53125 217.355469 161.53125 217.613281 161.53125 217.832031 C 161.425781 217.769531 161.328125 217.714844 161.246094 217.664062 C 160.992188 217.519531 160.847656 217.4375 160.847656 217.4375 C 160.847656 217.4375 160.960938 217.558594 161.160156 217.773438 C 161.261719 217.878906 161.386719 218.011719 161.542969 218.152344 C 161.550781 218.425781 161.566406 218.589844 161.566406 218.589844 C 161.566406 218.589844 161.625 218.488281 161.707031 218.308594 C 161.816406 218.414062 161.933594 218.519531 162.066406 218.628906 C 162.460938 218.980469 162.964844 219.351562 163.542969 219.738281 C 163.683594 219.828125 163.832031 219.917969 163.984375 220.011719 C 163.90625 220.414062 163.828125 220.804688 163.753906 221.179688 C 162.425781 220.78125 161.222656 220.414062 160.316406 220.125 C 159.804688 219.960938 159.390625 219.828125 159.105469 219.738281 C 158.816406 219.648438 158.65625 219.597656 158.65625 219.597656 C 158.65625 219.597656 158.796875 219.691406 159.046875 219.863281 C 159.300781 220.03125 159.675781 220.265625 160.144531 220.53125 C 161 221.015625 162.199219 221.589844 163.574219 222.039062 C 163.507812 222.375 163.4375 222.691406 163.375 222.988281 C 161.773438 222.59375 160.316406 222.199219 159.25 221.875 C 158.152344 221.539062 157.464844 221.324219 157.464844 221.324219 C 157.464844 221.324219 157.617188 221.421875 157.890625 221.601562 C 158.167969 221.777344 158.578125 222.015625 159.09375 222.285156 C 159.605469 222.5625 160.238281 222.847656 160.949219 223.132812 C 161.628906 223.394531 162.386719 223.644531 163.191406 223.847656 C 163.179688 223.890625 163.167969 223.941406 163.160156 223.988281 C 163.117188 224.175781 163.082031 224.34375 163.046875 224.503906 C 162.707031 224.417969 162.355469 224.335938 161.992188 224.253906 C 160.535156 223.925781 159.1875 223.683594 158.199219 223.507812 C 157.207031 223.339844 156.574219 223.253906 156.574219 223.253906 C 156.574219 223.253906 157.140625 223.546875 158.082031 223.9375 C 159.023438 224.324219 160.347656 224.789062 161.839844 225.121094 C 162.113281 225.183594 162.382812 225.238281 162.644531 225.285156 C 162.503906 225.527344 162.359375 225.785156 162.214844 226.050781 C 161.828125 225.996094 161.425781 225.9375 161.011719 225.886719 C 159.480469 225.691406 158.074219 225.570312 157.039062 225.488281 C 156.003906 225.410156 155.347656 225.386719 155.347656 225.386719 C 155.347656 225.386719 155.960938 225.625 156.964844 225.925781 C 157.972656 226.222656 159.378906 226.566406 160.941406 226.765625 C 161.234375 226.800781 161.519531 226.832031 161.800781 226.855469 C 161.703125 227.054688 161.609375 227.257812 161.511719 227.464844 C 161.195312 227.441406 160.871094 227.417969 160.539062 227.394531 C 159.101562 227.296875 157.78125 227.242188 156.808594 227.199219 C 155.839844 227.15625 155.21875 227.140625 155.21875 227.140625 C 155.21875 227.140625 155.792969 227.371094 156.746094 227.636719 C 157.699219 227.898438 159.035156 228.179688 160.515625 228.273438 C 160.730469 228.289062 160.941406 228.296875 161.152344 228.304688 C 161.144531 228.320312 161.136719 228.335938 161.132812 228.351562 C 161.039062 228.582031 160.953125 228.8125 160.867188 229.039062 C 160.832031 229.042969 160.792969 229.042969 160.753906 229.042969 C 159.507812 229.109375 158.371094 229.230469 157.535156 229.328125 C 156.695312 229.425781 156.160156 229.511719 156.160156 229.511719 C 156.160156 229.511719 156.679688 229.644531 157.527344 229.769531 C 158.316406 229.882812 159.390625 229.976562 160.570312 229.933594 C 160.460938 230.277344 160.359375 230.617188 160.273438 230.941406 C 159.09375 231.289062 158.039062 231.703125 157.273438 232.027344 C 156.492188 232.355469 156.015625 232.605469 156.015625 232.605469 C 156.015625 232.605469 156.550781 232.570312 157.390625 232.449219 C 158.101562 232.347656 159.03125 232.179688 160.039062 231.917969 C 159.957031 232.285156 159.890625 232.632812 159.832031 232.949219 C 159.761719 232.980469 159.695312 233.011719 159.621094 233.042969 C 159.351562 233.160156 159.085938 233.273438 158.828125 233.386719 C 158.816406 233.351562 158.808594 233.332031 158.808594 233.332031 C 158.808594 233.332031 158.8125 233.355469 158.8125 233.390625 C 157.90625 233.777344 157.078125 234.109375 156.417969 234.355469 C 155.558594 234.671875 155.019531 234.871094 155.019531 234.871094 C 155.019531 234.871094 155.164062 234.867188 155.425781 234.867188 C 155.6875 234.863281 156.0625 234.839844 156.523438 234.78125 C 156.988281 234.730469 157.535156 234.628906 158.128906 234.480469 C 158.371094 234.421875 158.621094 234.34375 158.875 234.261719 C 158.886719 234.472656 158.898438 234.710938 158.910156 234.976562 C 158.824219 235.035156 158.738281 235.089844 158.652344 235.148438 C 157.304688 236.023438 156.066406 236.816406 155.144531 237.382812 C 154.214844 237.953125 153.632812 238.3125 153.632812 238.3125 C 153.632812 238.3125 153.800781 238.269531 154.097656 238.1875 C 154.398438 238.101562 154.824219 237.96875 155.34375 237.777344 C 155.691406 237.648438 156.082031 237.492188 156.496094 237.308594 C 156.492188 237.5 156.488281 237.738281 156.488281 238.015625 C 156.484375 238.410156 156.484375 238.882812 156.488281 239.402344 C 155.679688 240.09375 154.953125 240.730469 154.375 241.238281 C 153.507812 242 152.976562 242.496094 152.976562 242.496094 C 152.976562 242.496094 153.632812 242.183594 154.640625 241.589844 C 155.183594 241.273438 155.824219 240.867188 156.507812 240.386719 C 156.511719 240.519531 156.515625 240.65625 156.523438 240.792969 C 156.550781 241.546875 156.59375 242.246094 156.640625 242.835938 C 156.574219 242.898438 156.507812 242.960938 156.441406 243.023438 C 155.667969 243.753906 154.921875 244.4375 154.230469 245.0625 C 153.535156 245.675781 152.902344 246.234375 152.355469 246.691406 C 151.257812 247.605469 150.570312 248.175781 150.570312 248.175781 C 150.570312 248.175781 150.769531 248.074219 151.132812 247.886719 C 151.496094 247.703125 152.011719 247.414062 152.628906 247.035156 C 153.25 246.664062 153.964844 246.179688 154.730469 245.613281 C 155.378906 245.125 156.058594 244.5625 156.738281 243.945312 C 156.777344 244.375 156.8125 244.632812 156.8125 244.632812 C 156.8125 244.632812 156.960938 244.246094 157.113281 243.597656 C 157.75 242.992188 158.324219 242.386719 158.835938 241.796875 C 158.800781 242.246094 158.769531 242.675781 158.730469 243.085938 C 158.097656 243.769531 157.382812 244.535156 156.601562 245.347656 C 156.640625 245.078125 156.65625 244.925781 156.65625 244.925781 C 156.65625 244.925781 156.554688 245.160156 156.386719 245.570312 C 156.078125 245.890625 155.761719 246.214844 155.4375 246.542969 C 154.574219 247.417969 153.742188 248.246094 152.972656 248.992188 C 152.195312 249.738281 151.492188 250.410156 150.886719 250.960938 C 149.667969 252.070312 148.910156 252.761719 148.910156 252.761719 C 148.910156 252.761719 149.132812 252.625 149.53125 252.382812 C 149.933594 252.140625 150.5 251.769531 151.183594 251.289062 C 151.867188 250.816406 152.65625 250.210938 153.503906 249.519531 C 154.167969 248.960938 154.863281 248.335938 155.5625 247.65625 C 155.320312 248.300781 155.058594 249.03125 154.792969 249.816406 C 154.484375 250.046875 154.167969 250.28125 153.847656 250.519531 C 151.980469 251.90625 150.292969 253.1875 149.054688 254.121094 C 148.4375 254.59375 147.9375 254.972656 147.589844 255.238281 C 147.242188 255.503906 147.050781 255.65625 147.050781 255.65625 C 147.050781 255.65625 147.269531 255.546875 147.667969 255.351562 C 148.0625 255.15625 148.628906 254.859375 149.316406 254.480469 C 150.34375 253.910156 151.640625 253.132812 153.019531 252.1875 C 152.757812 252.804688 152.453125 253.648438 152.253906 254.617188 C 152.191406 254.917969 152.144531 255.210938 152.109375 255.496094 C 151.890625 255.628906 151.671875 255.761719 151.445312 255.894531 C 151.246094 256.015625 151.042969 256.136719 150.847656 256.253906 C 150.855469 256.21875 150.871094 256.183594 150.878906 256.148438 C 151.082031 255.539062 151.191406 255.203125 151.191406 255.203125 C 151.191406 255.203125 151.03125 255.527344 150.746094 256.113281 C 150.707031 256.199219 150.660156 256.292969 150.613281 256.386719 C 149.949219 256.78125 149.300781 257.148438 148.695312 257.492188 C 147.835938 257.964844 147.054688 258.394531 146.386719 258.738281 C 145.042969 259.425781 144.203125 259.855469 144.203125 259.855469 C 144.203125 259.855469 144.433594 259.792969 144.847656 259.679688 C 145.265625 259.570312 145.859375 259.386719 146.582031 259.132812 C 147.308594 258.890625 148.148438 258.546875 149.070312 258.136719 C 149.347656 258.007812 149.636719 257.867188 149.929688 257.722656 C 149.792969 257.984375 149.648438 258.261719 149.480469 258.550781 C 149.40625 258.679688 149.335938 258.8125 149.261719 258.945312 C 147.519531 260.058594 145.917969 261.046875 144.714844 261.75 C 143.46875 262.480469 142.683594 262.9375 142.683594 262.9375 C 142.683594 262.9375 142.902344 262.867188 143.292969 262.738281 C 143.6875 262.613281 144.25 262.410156 144.925781 262.136719 C 145.613281 261.867188 146.40625 261.507812 147.269531 261.082031 C 147.617188 260.902344 147.980469 260.707031 148.347656 260.503906 C 148.050781 260.996094 147.722656 261.503906 147.382812 262.035156 C 147.171875 262.351562 146.953125 262.675781 146.726562 263.003906 C 146.191406 263.257812 145.664062 263.496094 145.164062 263.714844 C 144.355469 264.050781 143.617188 264.347656 142.980469 264.566406 C 142.664062 264.6875 142.371094 264.777344 142.117188 264.863281 C 141.863281 264.953125 141.640625 265.023438 141.457031 265.074219 C 141.089844 265.191406 140.886719 265.257812 140.886719 265.257812 C 140.886719 265.257812 141.101562 265.238281 141.488281 265.210938 C 141.679688 265.199219 141.917969 265.171875 142.1875 265.132812 C 142.460938 265.097656 142.773438 265.058594 143.109375 264.988281 C 143.792969 264.875 144.589844 264.667969 145.457031 264.398438 C 145.582031 264.359375 145.707031 264.3125 145.828125 264.269531 C 145.398438 264.867188 144.949219 265.46875 144.46875 266.074219 C 144.222656 266.382812 143.976562 266.683594 143.730469 266.976562 C 143.488281 267.050781 143.25 267.117188 143.019531 267.164062 C 142.824219 267.210938 142.632812 267.257812 142.449219 267.300781 C 142.261719 267.335938 142.082031 267.367188 141.910156 267.398438 C 141.570312 267.472656 141.253906 267.5 140.976562 267.535156 C 140.835938 267.554688 140.707031 267.570312 140.589844 267.585938 C 140.46875 267.59375 140.359375 267.601562 140.261719 267.605469 C 139.859375 267.636719 139.640625 267.652344 139.640625 267.652344 C 139.640625 267.652344 139.863281 267.683594 140.261719 267.742188 C 140.359375 267.757812 140.472656 267.773438 140.597656 267.792969 C 140.71875 267.800781 140.851562 267.808594 140.996094 267.816406 C 141.28125 267.832031 141.609375 267.855469 141.972656 267.835938 C 142.15625 267.828125 142.34375 267.824219 142.542969 267.816406 C 142.710938 267.796875 142.886719 267.78125 143.066406 267.761719 C 142.90625 267.949219 142.746094 268.132812 142.585938 268.3125 C 142.1875 268.394531 141.792969 268.46875 141.421875 268.535156 C 140.558594 268.671875 139.773438 268.792969 139.105469 268.863281 C 138.773438 268.90625 138.46875 268.929688 138.203125 268.957031 C 137.933594 268.988281 137.703125 269.007812 137.511719 269.019531 C 137.132812 269.050781 136.921875 269.070312 136.921875 269.070312 C 136.921875 269.070312 137.132812 269.101562 137.515625 269.15625 C 137.707031 269.1875 137.941406 269.214844 138.210938 269.238281 C 138.484375 269.261719 138.796875 269.292969 139.136719 269.300781 C 139.824219 269.34375 140.644531 269.328125 141.546875 269.269531 C 141.609375 269.261719 141.679688 269.253906 141.75 269.246094 C 141.558594 269.453125 141.371094 269.660156 141.183594 269.859375 C 141.105469 269.9375 141.027344 270.015625 140.949219 270.09375 C 140.644531 270.121094 140.332031 270.144531 140.007812 270.171875 C 138.5625 270.289062 137.238281 270.390625 136.257812 270.449219 C 135.765625 270.476562 135.367188 270.503906 135.089844 270.519531 C 134.808594 270.539062 134.652344 270.546875 134.652344 270.546875 C 134.652344 270.546875 134.804688 270.585938 135.074219 270.65625 C 135.347656 270.726562 135.746094 270.808594 136.242188 270.890625 C 137.207031 271.046875 138.550781 271.164062 140.011719 271.054688 C 139.882812 271.179688 139.753906 271.300781 139.628906 271.417969 C 139.414062 271.628906 139.207031 271.824219 139.003906 272.019531 C 138.621094 271.992188 138.226562 271.964844 137.816406 271.9375 C 136.527344 271.839844 135.34375 271.75 134.46875 271.660156 C 134.03125 271.621094 133.671875 271.585938 133.425781 271.558594 C 133.171875 271.535156 133.03125 271.523438 133.03125 271.523438 C 133.03125 271.523438 133.160156 271.582031 133.386719 271.6875 C 133.617188 271.796875 133.953125 271.941406 134.375 272.09375 C 135.222656 272.398438 136.433594 272.71875 137.785156 272.816406 C 137.894531 272.824219 138.003906 272.828125 138.113281 272.832031 C 137.71875 273.195312 137.339844 273.503906 137.015625 273.785156 C 136.835938 273.941406 136.667969 274.082031 136.511719 274.214844 C 136.355469 274.339844 136.210938 274.453125 136.078125 274.558594 C 135.960938 274.65625 135.851562 274.742188 135.757812 274.820312 C 135.582031 274.769531 135.410156 274.710938 135.242188 274.640625 C 133.9375 274.117188 132.824219 273.066406 132.070312 271.820312 C 131.300781 270.574219 130.953125 269.09375 130.882812 267.589844 C 130.8125 266.085938 131.019531 264.5625 131.351562 263.066406 C 131.519531 262.316406 131.707031 261.570312 131.933594 260.828125 C 132.152344 260.089844 132.359375 259.34375 132.617188 258.613281 C 133.589844 255.675781 134.8125 252.8125 136.269531 250.0625 C 137.742188 247.316406 139.445312 244.683594 141.367188 242.207031 C 143.292969 239.726562 145.441406 237.40625 147.804688 235.300781 C 148.871094 234.355469 148.742188 233.589844 147.78125 234.242188 C 143.496094 237.113281 139.375 241.289062 136.054688 246.394531 C 134.390625 248.945312 132.921875 251.71875 131.703125 254.652344 C 131.410156 255.390625 131.113281 256.128906 130.839844 256.878906 C 130.585938 257.636719 130.300781 258.386719 130.074219 259.160156 C 129.601562 260.6875 129.15625 262.253906 128.875 263.941406 C 128.597656 265.613281 128.488281 267.410156 128.789062 269.226562 C 128.863281 269.679688 128.96875 270.128906 129.09375 270.578125 C 129.160156 270.800781 129.242188 271.035156 129.316406 271.261719 C 129.402344 271.484375 129.5 271.707031 129.59375 271.925781 C 129.992188 272.792969 130.503906 273.59375 131.128906 274.3125 C 131.753906 275.027344 132.488281 275.660156 133.328125 276.152344 C 134.171875 276.648438 135.128906 277 136.132812 277.125 C 136.382812 277.152344 136.636719 277.183594 136.890625 277.175781 C 137.140625 277.179688 137.394531 277.175781 137.640625 277.148438 C 138.132812 277.097656 138.609375 276.996094 139.054688 276.859375 C 139.957031 276.589844 140.742188 276.191406 141.460938 275.777344 C 142.183594 275.355469 142.820312 274.917969 143.457031 274.492188 C 144.09375 274.0625 144.726562 273.621094 145.347656 273.175781 C 146.589844 272.28125 147.792969 271.351562 148.941406 270.375 C 151.226562 268.421875 153.277344 266.257812 154.875 263.902344 C 155.574219 262.878906 156.214844 261.816406 156.773438 260.71875 C 157.066406 260.175781 157.316406 259.613281 157.582031 259.0625 C 157.824219 258.496094 158.078125 257.9375 158.296875 257.367188 C 159.210938 255.09375 159.917969 252.765625 160.558594 250.429688 C 161.191406 248.09375 161.753906 245.757812 162.335938 243.425781 C 162.910156 241.132812 163.480469 238.839844 164.054688 236.546875 C 165.96875 233.433594 167.882812 230.320312 169.796875 227.207031 L 172.699219 222.480469 L 174.171875 220.082031 L 175.179688 218.445312 L 175.679688 217.625 L 175.933594 217.21875 L 176.121094 216.914062 C 176.132812 216.882812 176.113281 216.867188 176.109375 216.847656 L 176.078125 216.839844 C 177.460938 215.953125 178.554688 214.730469 179.453125 213.328125 C 180 212.476562 180.480469 211.558594 180.917969 210.613281 L 181.242188 209.902344 L 181.320312 209.722656 L 181.355469 209.632812 C 181.371094 209.597656 181.375 209.582031 181.410156 209.515625 L 181.730469 208.859375 C 182.148438 207.992188 182.535156 207.164062 182.886719 206.398438 C 182.160156 206.046875 181.4375 205.699219 180.722656 205.355469 C 180.386719 205.199219 180.058594 205.042969 179.730469 204.886719 C 179.613281 204.839844 179.5 204.789062 179.382812 204.742188 C 179.414062 204.703125 179.441406 204.664062 179.472656 204.617188 C 179.703125 204.320312 179.957031 203.941406 180.25 203.480469 C 181.667969 201.351562 183.304688 199.339844 185.066406 197.410156 C 186.816406 195.476562 188.695312 193.628906 190.617188 191.800781 C 192.578125 189.972656 194.546875 188.140625 196.515625 186.304688 C 197.496094 185.363281 198.472656 184.421875 199.453125 183.476562 C 200.417969 182.519531 201.382812 181.5625 202.351562 180.605469 C 210.027344 172.878906 217.292969 164.664062 224.15625 156.203125 C 227.902344 151.589844 231.542969 146.878906 235.066406 142.085938 C 236.839844 139.691406 238.597656 137.207031 240.105469 134.515625 C 241.613281 131.835938 242.855469 128.886719 243.398438 125.710938 C 243.671875 124.125 243.710938 122.484375 243.570312 120.871094 C 243.421875 119.253906 243.035156 117.6875 242.53125 116.195312 "
                          fill-opacity="1" fill-rule="nonzero"/>
                </g>
            </g>
        </g>
    </g>
    <g fill="#000000" fill-opacity="1">
        <g transform="translate(61.523438, 75.300021)">
            <g>
                <path d="M 15.03125 -29.84375 C 17.125 -29.84375 18.898438 -29.566406 20.359375 -29.015625 C 21.816406 -28.460938 23.15625 -27.679688 24.375 -26.671875 L 21 -22.59375 C 20.195312 -23.25 19.3125 -23.769531 18.34375 -24.15625 C 17.382812 -24.539062 16.335938 -24.734375 15.203125 -24.734375 C 13.984375 -24.734375 12.867188 -24.382812 11.859375 -23.6875 C 10.859375 -23 10.054688 -21.910156 9.453125 -20.421875 C 8.847656 -18.929688 8.546875 -16.992188 8.546875 -14.609375 C 8.546875 -12.273438 8.835938 -10.367188 9.421875 -8.890625 C 10.003906 -7.410156 10.804688 -6.320312 11.828125 -5.625 C 12.847656 -4.9375 14.015625 -4.59375 15.328125 -4.59375 C 16.785156 -4.59375 17.992188 -4.863281 18.953125 -5.40625 C 19.921875 -5.957031 20.8125 -6.554688 21.625 -7.203125 L 24.765625 -3.21875 C 23.671875 -2.132812 22.320312 -1.207031 20.71875 -0.4375 C 19.125 0.332031 17.203125 0.71875 14.953125 0.71875 C 12.316406 0.71875 9.976562 0.132812 7.9375 -1.03125 C 5.90625 -2.207031 4.3125 -3.929688 3.15625 -6.203125 C 2 -8.484375 1.421875 -11.285156 1.421875 -14.609375 C 1.421875 -17.859375 2.019531 -20.617188 3.21875 -22.890625 C 4.414062 -25.160156 6.039062 -26.882812 8.09375 -28.0625 C 10.15625 -29.25 12.46875 -29.84375 15.03125 -29.84375 Z M 15.03125 -29.84375 "/>
            </g>
        </g>
    </g>
    <g fill="#000000" fill-opacity="1">
        <g transform="translate(86.718749, 75.300021)">
            <g/>
        </g>
    </g>
    <g fill="#000000" fill-opacity="1">
        <g transform="translate(111.911771, 75.300021)">
            <g/>
        </g>
    </g>
    <g fill="#000000" fill-opacity="1">
        <g transform="translate(137.10937, 75.300021)">
            <g>
                <path d="M 24.25 -14.578125 C 24.25 -11.492188 23.804688 -8.804688 22.921875 -6.515625 C 22.046875 -4.234375 20.742188 -2.457031 19.015625 -1.1875 C 17.285156 0.0820312 15.144531 0.71875 12.59375 0.71875 C 10.0625 0.71875 7.925781 0.0976562 6.1875 -1.140625 C 4.457031 -2.378906 3.148438 -4.140625 2.265625 -6.421875 C 1.378906 -8.703125 0.9375 -11.421875 0.9375 -14.578125 C 0.9375 -17.648438 1.378906 -20.328125 2.265625 -22.609375 C 3.148438 -24.898438 4.457031 -26.675781 6.1875 -27.9375 C 7.925781 -29.207031 10.0625 -29.84375 12.59375 -29.84375 C 15.144531 -29.84375 17.285156 -29.222656 19.015625 -27.984375 C 20.742188 -26.753906 22.046875 -25 22.921875 -22.71875 C 23.804688 -20.4375 24.25 -17.722656 24.25 -14.578125 Z M 17.203125 -14.578125 C 17.203125 -18.160156 16.84375 -20.765625 16.125 -22.390625 C 15.414062 -24.015625 14.238281 -24.828125 12.59375 -24.828125 C 10.957031 -24.828125 9.78125 -24.007812 9.0625 -22.375 C 8.351562 -20.738281 8 -18.140625 8 -14.578125 C 8 -10.992188 8.363281 -8.390625 9.09375 -6.765625 C 9.820312 -5.140625 10.988281 -4.328125 12.59375 -4.328125 C 14.28125 -4.328125 15.46875 -5.148438 16.15625 -6.796875 C 16.851562 -8.441406 17.203125 -11.035156 17.203125 -14.578125 Z M 17.203125 -14.578125 "/>
            </g>
        </g>
    </g>
    <g fill="#000000" fill-opacity="1">
        <g transform="translate(162.304681, 75.300021)">
            <g/>
        </g>
    </g>
    <g fill="#000000" fill-opacity="1">
        <g transform="translate(187.497703, 75.300021)">
            <g/>
        </g>
    </g>
    <g fill="#000000" fill-opacity="1">
        <g transform="translate(212.695303, 75.300021)">
            <g>
                <path d="M 16.984375 -14.703125 C 16.984375 -16.660156 16.816406 -18.253906 16.484375 -19.484375 C 16.160156 -20.710938 15.707031 -21.664062 15.125 -22.34375 C 14.550781 -23.019531 13.867188 -23.484375 13.078125 -23.734375 C 12.296875 -23.984375 11.453125 -24.109375 10.546875 -24.109375 L 9.078125 -24.109375 L 9.078125 -4.984375 L 10.546875 -4.984375 C 11.492188 -4.984375 12.363281 -5.128906 13.15625 -5.421875 C 13.945312 -5.722656 14.628906 -6.234375 15.203125 -6.953125 C 15.773438 -7.679688 16.210938 -8.675781 16.515625 -9.9375 C 16.828125 -11.195312 16.984375 -12.785156 16.984375 -14.703125 Z M 24.125 -14.703125 C 24.125 -11.742188 23.734375 -9.304688 22.953125 -7.390625 C 22.179688 -5.472656 21.128906 -3.976562 19.796875 -2.90625 C 18.472656 -1.832031 16.96875 -1.078125 15.28125 -0.640625 C 13.59375 -0.210938 11.84375 0 10.03125 0 L 2.1875 0 L 2.1875 -29.109375 L 9.53125 -29.109375 C 11.394531 -29.109375 13.195312 -28.914062 14.9375 -28.53125 C 16.6875 -28.144531 18.25 -27.4375 19.625 -26.40625 C 21 -25.375 22.09375 -23.914062 22.90625 -22.03125 C 23.71875 -20.15625 24.125 -17.710938 24.125 -14.703125 Z M 24.125 -14.703125 "/>
            </g>
        </g>
    </g>
    <g fill="#000000" fill-opacity="1">
        <g transform="translate(237.890614, 75.300021)">
            <g/>
        </g>
    </g>
    <g fill="#000000" fill-opacity="1">
        <g transform="translate(263.083636, 75.300021)">
            <g/>
        </g>
    </g>
    <g fill="#000000" fill-opacity="1">
        <g transform="translate(288.281236, 75.300021)">
            <g>
                <path d="M 10.796875 -24.1875 L 10.796875 -17.203125 L 20.875 -17.203125 L 20.875 -12.375 L 10.796875 -12.375 L 10.796875 -4.9375 L 22.953125 -4.9375 L 22.953125 0 L 3.90625 0 L 3.90625 -29.109375 L 22.9375 -29.109375 L 22.234375 -24.1875 Z M 10.796875 -24.1875 "/>
            </g>
        </g>
    </g>
    <g fill="#000000" fill-opacity="1">
        <g transform="translate(53.050782, 326.516609)">
            <g>
                <path d="M 14.203125 -11.546875 L 10.25 -7.4375 L 10.25 0 L 3.484375 0 L 3.484375 -29.40625 L 10.25 -29.40625 L 10.25 -15.671875 L 23.265625 -29.40625 L 30.828125 -29.40625 L 18.640625 -16.296875 L 31.546875 0 L 23.609375 0 Z M 14.203125 -11.546875 "/>
            </g>
        </g>
    </g>
    <g fill="#000000" fill-opacity="1">
        <g transform="translate(84.122039, 326.516609)">
            <g/>
        </g>
    </g>
    <g fill="#000000" fill-opacity="1">
        <g transform="translate(96.004702, 326.516609)">
            <g>
                <path d="M 3.484375 -29.40625 L 10.296875 -29.40625 L 10.296875 0 L 3.484375 0 Z M 3.484375 -29.40625 "/>
            </g>
        </g>
    </g>
    <g fill="#000000" fill-opacity="1">
        <g transform="translate(109.77683, 326.516609)">
            <g/>
        </g>
    </g>
    <g fill="#000000" fill-opacity="1">
        <g transform="translate(121.659493, 326.516609)">
            <g>
                <path d="M 9.578125 -23.859375 L 0.171875 -23.859375 L 0.171875 -29.40625 L 25.78125 -29.40625 L 25.78125 -23.859375 L 16.375 -23.859375 L 16.375 0 L 9.578125 0 Z M 9.578125 -23.859375 "/>
            </g>
        </g>
    </g>
    <g fill="#000000" fill-opacity="1">
        <g transform="translate(147.608192, 326.516609)">
            <g/>
        </g>
    </g>
    <g fill="#000000" fill-opacity="1">
        <g transform="translate(159.490855, 326.516609)">
            <g>
                <path d="M 17.5625 0.5 C 14.5625 0.5 11.847656 -0.148438 9.421875 -1.453125 C 7.003906 -2.753906 5.101562 -4.554688 3.71875 -6.859375 C 2.332031 -9.171875 1.640625 -11.785156 1.640625 -14.703125 C 1.640625 -17.609375 2.332031 -20.21875 3.71875 -22.53125 C 5.101562 -24.84375 7.003906 -26.648438 9.421875 -27.953125 C 11.847656 -29.253906 14.570312 -29.90625 17.59375 -29.90625 C 20.144531 -29.90625 22.445312 -29.457031 24.5 -28.5625 C 26.5625 -27.664062 28.289062 -26.378906 29.6875 -24.703125 L 25.328125 -20.65625 C 23.335938 -22.957031 20.875 -24.109375 17.9375 -24.109375 C 16.113281 -24.109375 14.488281 -23.707031 13.0625 -22.90625 C 11.632812 -22.113281 10.519531 -21.003906 9.71875 -19.578125 C 8.925781 -18.148438 8.53125 -16.523438 8.53125 -14.703125 C 8.53125 -12.878906 8.925781 -11.253906 9.71875 -9.828125 C 10.519531 -8.398438 11.632812 -7.285156 13.0625 -6.484375 C 14.488281 -5.691406 16.113281 -5.296875 17.9375 -5.296875 C 20.875 -5.296875 23.335938 -6.457031 25.328125 -8.78125 L 29.6875 -4.75 C 28.289062 -3.039062 26.554688 -1.738281 24.484375 -0.84375 C 22.410156 0.0507812 20.101562 0.5 17.5625 0.5 Z M 17.5625 0.5 "/>
            </g>
        </g>
    </g>
    <g fill="#000000" fill-opacity="1">
        <g transform="translate(190.268204, 326.516609)">
            <g/>
        </g>
    </g>
    <g fill="#000000" fill-opacity="1">
        <g transform="translate(202.150867, 326.516609)">
            <g>
                <path d="M 30.453125 -29.40625 L 30.453125 0 L 23.640625 0 L 23.640625 -12.046875 L 10.296875 -12.046875 L 10.296875 0 L 3.484375 0 L 3.484375 -29.40625 L 10.296875 -29.40625 L 10.296875 -17.8125 L 23.640625 -17.8125 L 23.640625 -29.40625 Z M 30.453125 -29.40625 "/>
            </g>
        </g>
    </g>
    <g fill="#000000" fill-opacity="1">
        <g transform="translate(236.077321, 326.516609)">
            <g/>
        </g>
    </g>
    <g fill="#000000" fill-opacity="1">
        <g transform="translate(247.959996, 326.516609)">
            <g>
                <path d="M 26.25 -5.453125 L 26.25 0 L 3.484375 0 L 3.484375 -29.40625 L 25.703125 -29.40625 L 25.703125 -23.9375 L 10.25 -23.9375 L 10.25 -17.5625 L 23.890625 -17.5625 L 23.890625 -12.265625 L 10.25 -12.265625 L 10.25 -5.453125 Z M 26.25 -5.453125 "/>
            </g>
        </g>
    </g>
    <g fill="#000000" fill-opacity="1">
        <g transform="translate(276.134066, 326.516609)">
            <g/>
        </g>
    </g>
    <g fill="#000000" fill-opacity="1">
        <g transform="translate(288.016741, 326.516609)">
            <g>
                <path d="M 30.453125 -29.40625 L 30.453125 0 L 24.859375 0 L 10.203125 -17.84375 L 10.203125 0 L 3.484375 0 L 3.484375 -29.40625 L 9.109375 -29.40625 L 23.734375 -11.546875 L 23.734375 -29.40625 Z M 30.453125 -29.40625 "/>
            </g>
        </g>
    </g>
</svg>