<?xml version="1.0" encoding="UTF-8" standalone="no"?>
<!-- Created with Inkscape (http://www.inkscape.org/) -->

<svg
   width="78.288536mm"
   height="67.089417mm"
   viewBox="0 0 78.288536 67.089417"
   version="1.1"
   id="svg1"
   xml:space="preserve"
   inkscape:version="1.3 (0e150ed6c4, 2023-07-21)"
   sodipodi:docname="Logo simple.svg"
   xmlns:inkscape="http://www.inkscape.org/namespaces/inkscape"
   xmlns:sodipodi="http://sodipodi.sourceforge.net/DTD/sodipodi-0.dtd"
   xmlns:xlink="http://www.w3.org/1999/xlink"
   xmlns="http://www.w3.org/2000/svg"
   xmlns:svg="http://www.w3.org/2000/svg"><sodipodi:namedview
     id="namedview1"
     pagecolor="#ffffff"
     bordercolor="#000000"
     borderopacity="0.25"
     inkscape:showpageshadow="2"
     inkscape:pageopacity="0.0"
     inkscape:pagecheckerboard="0"
     inkscape:deskcolor="#d1d1d1"
     inkscape:document-units="mm"
     inkscape:zoom="0.68810016"
     inkscape:cx="110.44904"
     inkscape:cy="169.30675"
     inkscape:window-width="1920"
     inkscape:window-height="1009"
     inkscape:window-x="645"
     inkscape:window-y="1072"
     inkscape:window-maximized="1"
     inkscape:current-layer="g77" /><defs
     id="defs1"><linearGradient
       id="linearGradient86"
       inkscape:collect="always"><stop
         style="stop-color:#ff0f0f;stop-opacity:1;"
         offset="0.54365081"
         id="stop86" /><stop
         style="stop-color:#ff930f;stop-opacity:0.07768595;"
         offset="1"
         id="stop87" /></linearGradient><linearGradient
       id="linearGradient78"
       inkscape:collect="always"
       gradientTransform="matrix(1.6174075,0,0,0.6182734,-162.17353,60.931824)"
       x1="5.6952848"
       y1="8.399478"
       x2="82.843285"
       y2="8.399478"
       gradientUnits="userSpaceOnUse"><stop
         style="stop-color:#ff930f;stop-opacity:1;"
         offset="0"
         id="stop77" /><stop
         style="stop-color:#fffe22;stop-opacity:1;"
         offset="0.50132275"
         id="stop78" /></linearGradient><linearGradient
       id="linearGradient1"
       inkscape:collect="always"><stop
         style="stop-color:#ff930f;stop-opacity:1;"
         offset="0"
         id="stop1" /><stop
         style="stop-color:#ff920f;stop-opacity:1;"
         offset="0.26550078"
         id="stop8" /><stop
         style="stop-color:#e85300;stop-opacity:0.68627451;"
         offset="0.8298887"
         id="stop7" /><stop
         style="stop-color:#e85300;stop-opacity:0.68646866;"
         offset="1"
         id="stop2" /></linearGradient><linearGradient
       id="linearGradient793"
       inkscape:collect="always"><stop
         style="stop-color:#73ccff;stop-opacity:1;"
         offset="0"
         id="stop794" /><stop
         style="stop-color:#ffffff;stop-opacity:0;"
         offset="1"
         id="stop795" /></linearGradient><linearGradient
       id="linearGradient16"
       inkscape:collect="always"><stop
         style="stop-color:#ff930f;stop-opacity:1;"
         offset="0"
         id="stop16" /><stop
         style="stop-color:#0cb400;stop-opacity:1;"
         offset="1"
         id="stop17" /></linearGradient><linearGradient
       id="swatch12"
       inkscape:swatch="solid"><stop
         style="stop-color:#000000;stop-opacity:1;"
         offset="0"
         id="stop13" /></linearGradient><linearGradient
       id="linearGradient11-5"
       inkscape:collect="always"
       gradientTransform="matrix(0.76173937,0,0,1.312785,-33.56932,-132.8)"
       x1="-118.61873"
       y1="91.76001"
       x2="-107.34865"
       y2="91.76001"
       gradientUnits="userSpaceOnUse"><stop
         style="stop-color:#73ccff;stop-opacity:1;"
         offset="0"
         id="stop7-4" /><stop
         style="stop-color:#ffffff;stop-opacity:0;"
         offset="1"
         id="stop8-0" /></linearGradient><linearGradient
       inkscape:collect="always"
       xlink:href="#linearGradient793"
       id="linearGradient61"
       gradientUnits="userSpaceOnUse"
       gradientTransform="translate(-238.81146,-298.67036)"
       x1="90.963097"
       y1="297.36533"
       x2="85.483398"
       y2="286.95389" /><linearGradient
       inkscape:collect="always"
       xlink:href="#linearGradient793"
       id="linearGradient62"
       gradientUnits="userSpaceOnUse"
       gradientTransform="translate(-232.80676,-298.5809)"
       x1="90.963097"
       y1="297.36533"
       x2="85.483398"
       y2="286.95389" /><linearGradient
       inkscape:collect="always"
       xlink:href="#linearGradient793"
       id="linearGradient63"
       gradientUnits="userSpaceOnUse"
       gradientTransform="matrix(0.85714285,0,0,0.90322581,-203.23192,-292.22853)"
       x1="90.963097"
       y1="297.36533"
       x2="85.483398"
       y2="286.95389" /><linearGradient
       inkscape:collect="always"
       xlink:href="#linearGradient793"
       id="linearGradient64"
       gradientUnits="userSpaceOnUse"
       gradientTransform="matrix(1.3142857,0,0,0.90322581,-236.17003,-292.2003)"
       x1="90.963097"
       y1="297.36533"
       x2="85.483398"
       y2="286.95389" /><linearGradient
       inkscape:collect="always"
       xlink:href="#linearGradient793"
       id="linearGradient65"
       gradientUnits="userSpaceOnUse"
       gradientTransform="matrix(0.82857142,0,0,1.2903226,-201.22235,-381.73705)"
       x1="90.963097"
       y1="297.36533"
       x2="85.483398"
       y2="286.95389" /><linearGradient
       inkscape:collect="always"
       xlink:href="#linearGradient793"
       id="linearGradient66"
       gradientUnits="userSpaceOnUse"
       gradientTransform="matrix(0.79999999,0,0,1.0483871,-172.14728,-312.75679)"
       x1="90.963097"
       y1="297.36533"
       x2="85.483398"
       y2="286.95389" /><linearGradient
       inkscape:collect="always"
       xlink:href="#linearGradient793"
       id="linearGradient67"
       gradientUnits="userSpaceOnUse"
       gradientTransform="matrix(1.0857143,0,0,1.0967742,-191.66993,-326.8346)"
       x1="90.963097"
       y1="297.36533"
       x2="85.483398"
       y2="286.95389" /><linearGradient
       inkscape:collect="always"
       xlink:href="#linearGradient793"
       id="linearGradient68"
       gradientUnits="userSpaceOnUse"
       gradientTransform="matrix(0.97142857,0,0,1.4354839,-184.667,-398.82571)"
       x1="90.963097"
       y1="297.36533"
       x2="85.483398"
       y2="286.95389" /><linearGradient
       inkscape:collect="always"
       xlink:href="#linearGradient793"
       id="linearGradient69"
       gradientUnits="userSpaceOnUse"
       gradientTransform="matrix(0.97142857,0,0,1.4032258,-177.81468,-389.167)"
       x1="90.963097"
       y1="297.36533"
       x2="85.483398"
       y2="286.95389" /><linearGradient
       inkscape:collect="always"
       xlink:href="#linearGradient793"
       id="linearGradient70"
       gradientUnits="userSpaceOnUse"
       gradientTransform="matrix(0.91428571,0,0,1.4193548,-234.56379,-394.02256)"
       x1="90.963097"
       y1="297.36533"
       x2="85.483398"
       y2="286.95389" /><linearGradient
       inkscape:collect="always"
       xlink:href="#linearGradient793"
       id="linearGradient71"
       gradientUnits="userSpaceOnUse"
       gradientTransform="matrix(0.94285714,0,0,1.4193548,-230.7726,-393.73917)"
       x1="90.963097"
       y1="297.36533"
       x2="85.483398"
       y2="286.95389" /><linearGradient
       inkscape:collect="always"
       xlink:href="#linearGradient793"
       id="linearGradient72"
       gradientUnits="userSpaceOnUse"
       gradientTransform="matrix(1.1142857,0,0,1.3387097,-227.26012,-369.64265)"
       x1="90.963097"
       y1="297.36533"
       x2="85.483398"
       y2="286.95389" /><linearGradient
       inkscape:collect="always"
       xlink:href="#linearGradient793"
       id="linearGradient73"
       gradientUnits="userSpaceOnUse"
       gradientTransform="matrix(0.88571428,0,0,1.3870968,-200.41055,-384.02132)"
       x1="90.963097"
       y1="297.36533"
       x2="85.483398"
       y2="286.95389" /><linearGradient
       inkscape:collect="always"
       xlink:href="#linearGradient793"
       id="linearGradient74"
       gradientUnits="userSpaceOnUse"
       gradientTransform="matrix(0.94285714,0,0,1.4193548,-198.94738,-393.55784)"
       x1="90.963097"
       y1="297.36533"
       x2="85.483398"
       y2="286.95389" /><linearGradient
       inkscape:collect="always"
       xlink:href="#linearGradient16"
       id="linearGradient75"
       gradientUnits="userSpaceOnUse"
       gradientTransform="translate(-239.58048,-299.82389)"
       x1="56.98893"
       y1="284.48801"
       x2="160.92065"
       y2="284.48801" /><linearGradient
       inkscape:collect="always"
       xlink:href="#linearGradient78"
       id="linearGradient76"
       gradientUnits="userSpaceOnUse"
       gradientTransform="matrix(1.6174075,0,0,0.6182734,-195.74285,-71.868176)"
       x1="5.6952848"
       y1="8.399478"
       x2="82.843285"
       y2="8.399478" /><linearGradient
       inkscape:collect="always"
       xlink:href="#linearGradient1"
       id="linearGradient77"
       gradientUnits="userSpaceOnUse"
       gradientTransform="translate(-239.58048,-299.82389)"
       x1="54.249077"
       y1="302.47971"
       x2="65.391144"
       y2="302.47971" /><linearGradient
       inkscape:collect="always"
       xlink:href="#linearGradient86"
       id="linearGradient87"
       x1="-237.05106"
       y1="-43.344513"
       x2="-191.94432"
       y2="-43.344513"
       gradientUnits="userSpaceOnUse"
       gradientTransform="matrix(-0.00144897,-0.97864412,1.0207018,-0.00138927,-130.17659,-201.82458)" /></defs><g
     inkscape:label="Laag 1"
     inkscape:groupmode="layer"
     id="layer1"
     transform="translate(-67.007928,-42.230983)"><g
       id="g77"
       transform="matrix(0.55691907,0,0,0.55691907,172.52062,76.91377)"><rect
         style="fill:#ffffff;stroke-width:0.845106;stroke-dasharray:0.845106, 0.845106"
         id="rect1"
         width="164.41774"
         height="164.41774"
         x="-201.37955"
         y="-84.252403"
         inkscape:export-filename="logo_small - 600dpi - square.png"
         inkscape:export-xdpi="600"
         inkscape:export-ydpi="600" /><g
         id="g1"
         transform="translate(-2.9266062,4.3988321)"><rect
           style="fill:url(#linearGradient61);fill-opacity:1;stroke-width:2.3;stroke-linecap:round;stroke-linejoin:round;stroke-dasharray:none"
           id="rect790-7-9"
           width="6.3929887"
           height="11.324723"
           x="-152.96274"
           y="-12.447087"
           inkscape:export-filename="logo_small - 100dpi.png"
           inkscape:export-xdpi="100"
           inkscape:export-ydpi="100" /><rect
           style="fill:url(#linearGradient62);fill-opacity:1;stroke-width:2.3;stroke-linecap:round;stroke-linejoin:round;stroke-dasharray:none"
           id="rect790-2-6-6"
           width="6.3929887"
           height="11.324723"
           x="-146.95805"
           y="-12.357617" /><rect
           style="fill:url(#linearGradient63);fill-opacity:1;stroke-width:2.02373;stroke-linecap:round;stroke-linejoin:round;stroke-dasharray:none"
           id="rect790-3-2-7"
           width="5.4797044"
           height="10.228783"
           x="-129.64732"
           y="-33.704288" /><rect
           style="fill:url(#linearGradient64);fill-opacity:1;stroke-width:2.50594;stroke-linecap:round;stroke-linejoin:round;stroke-dasharray:none"
           id="rect790-1-1-2"
           width="8.4022141"
           height="10.228783"
           x="-123.34031"
           y="-33.67606" /><rect
           style="fill:url(#linearGradient65);fill-opacity:1;stroke-width:2.37816;stroke-linecap:round;stroke-linejoin:round;stroke-dasharray:none"
           id="rect790-34-4-7"
           width="5.2970476"
           height="14.612546"
           x="-130.09056"
           y="-12.416692" /><rect
           style="fill:url(#linearGradient11-5);fill-opacity:1;stroke-width:3.04642;stroke-linecap:round;stroke-linejoin:round;stroke-dasharray:none"
           id="rect790-8-0-9"
           width="8.5848703"
           height="14.795203"
           x="-123.92588"
           y="-12.338841" /><rect
           style="fill:url(#linearGradient66);fill-opacity:1;stroke-width:2.10637;stroke-linecap:round;stroke-linejoin:round;stroke-dasharray:none"
           id="rect790-24-1-9"
           width="5.1143909"
           height="11.872694"
           x="-103.46832"
           y="-12.684003" /><rect
           style="fill:url(#linearGradient67);fill-opacity:1;stroke-width:2.50983;stroke-linecap:round;stroke-linejoin:round;stroke-dasharray:none"
           id="rect790-84-7-5"
           width="6.940959"
           height="12.420664"
           x="-98.462769"
           y="-12.912297" /><rect
           style="fill:url(#linearGradient68);fill-opacity:1;stroke-width:2.71602;stroke-linecap:round;stroke-linejoin:round;stroke-dasharray:none"
           id="rect790-38-1-0"
           width="6.2103319"
           height="16.256458"
           x="-101.27112"
           y="12.04317" /><rect
           style="fill:url(#linearGradient69);fill-opacity:1;stroke-width:2.68533;stroke-linecap:round;stroke-linejoin:round;stroke-dasharray:none"
           id="rect790-246-2-05"
           width="6.2103319"
           height="15.891144"
           x="-94.418793"
           y="12.46889" /><rect
           style="fill:url(#linearGradient70);fill-opacity:1;stroke-width:2.62008;stroke-linecap:round;stroke-linejoin:round;stroke-dasharray:none"
           id="rect790-5-5-2"
           width="5.8450184"
           height="16.073801"
           x="-156.07355"
           y="12.229815" /><rect
           style="fill:url(#linearGradient71);fill-opacity:1;stroke-width:2.6607;stroke-linecap:round;stroke-linejoin:round;stroke-dasharray:none"
           id="rect790-6-4-3"
           width="6.0276752"
           height="16.073801"
           x="-149.82953"
           y="12.513202" /><rect
           style="fill:url(#linearGradient72);fill-opacity:1;stroke-width:2.80911;stroke-linecap:round;stroke-linejoin:round;stroke-dasharray:none"
           id="rect790-4-9-0"
           width="7.1236162"
           height="15.160517"
           x="-131.60013"
           y="13.52724" /><rect
           style="fill:url(#linearGradient73);fill-opacity:1;stroke-width:2.54934;stroke-linecap:round;stroke-linejoin:round;stroke-dasharray:none"
           id="rect790-30-1-4"
           width="5.6623611"
           height="15.708488"
           x="-124.37312"
           y="12.998065" /><rect
           style="fill:url(#linearGradient74);fill-opacity:1;stroke-width:2.6607;stroke-linecap:round;stroke-linejoin:round;stroke-dasharray:none"
           id="rect790-12-1-35"
           width="6.0276752"
           height="16.073801"
           x="-118.00433"
           y="12.694507" /><path
           style="fill:none;stroke:url(#linearGradient75);stroke-width:2.3;stroke-linecap:round;stroke-dasharray:none"
           d="m -182.18058,-14.37693 59.86578,-42.513385 43.654971,32.695575 -0.18265,50.41329"
           id="path15-7-6"
           sodipodi:nodetypes="cccc" /><path
           style="fill:none;stroke:url(#linearGradient76);stroke-width:2.765;stroke-linecap:round;stroke-linejoin:round;stroke-dasharray:none"
           d="m -185.14875,-20.35894 62.65129,-44.933595 59.363461,43.472325"
           id="path4-0-0" /><path
           style="fill:#000000"
           d="m -170.36122,30.22704 -2.00356,0.10349 c 0.0401,-6.25794 0.22409,-36.9745 0.20418,-37.39121 -0.0111,-0.23221 -0.0147,-1.76577 0.0385,-3.47434 0.0759,-2.43846 0.0196,-3.13548 -0.26182,-3.2413 -0.31078,-0.11686 -4.06179,-0.29431 -7.909,-0.37417 -0.94555,-0.0196 -1.20791,-0.12375 -1.23553,-0.49037 -0.0295,-0.39221 0.21,-0.47048 1.52208,-0.49736 0.85642,-0.0175 1.75974,-0.10965 2.00737,-0.20468 0.6581,-0.25253 0.0803,-0.72763 -1.12277,-0.92318 -0.81741,-0.13287 -1.04176,-0.31497 -1.33674,-1.08502 l -0.35447,-0.92535 0.0876,0.86492 c 0.0544,0.53726 -0.0626,0.98831 -0.30884,1.19062 -0.34134,0.28046 -0.37398,0.21238 -0.23493,-0.49009 0.1205,-0.60876 0.0647,-0.8158 -0.21996,-0.8158 -0.20979,0 -0.38144,0.10625 -0.38144,0.23611 0,0.12985 -0.121,0.16131 -0.2689,0.0699 -0.14789,-0.0914 -0.20966,-0.26205 -0.13725,-0.37921 0.0724,-0.11715 -0.16958,-0.53804 -0.53774,-0.9353 -0.60137,-0.64889 -0.62598,-0.75405 -0.2421,-1.03475 0.38703,-0.283 0.37577,-0.35909 -0.11939,-0.80721 -0.38,-0.34389 -0.5467,-0.38812 -0.5467,-0.14507 0,0.19233 -0.0806,0.26906 -0.17919,0.17051 -0.0985,-0.0985 0.0547,-0.39708 0.34055,-0.66339 0.46544,-0.43362 0.55926,-0.44189 0.89812,-0.0791 0.33306,0.35654 0.31603,0.38131 -0.14211,0.20674 -0.39715,-0.15133 -0.44758,-0.12484 -0.21282,0.11179 0.43809,0.44158 0.94046,0.0617 0.65232,-0.49327 -0.12763,-0.24583 -0.15772,-0.62556 -0.0669,-0.84384 0.20153,-0.48417 0.98564,-0.6495 1.22713,-0.25875 0.25514,0.41283 0.92978,-0.20803 0.74612,-0.68663 -0.0884,-0.23047 0.0208,-0.37753 0.28031,-0.37753 0.23385,0 0.42518,-0.11907 0.42518,-0.26459 0,-0.14552 -0.12609,-0.26458 -0.2802,-0.26458 -0.15411,0 -0.20221,-0.12619 -0.10689,-0.28042 0.10952,-0.17721 0.30693,-0.10418 0.53637,0.19844 0.30304,0.3997 0.36445,0.41042 0.37147,0.0648 0.005,-0.22771 0.42513,-0.61274 0.93446,-0.85562 0.50932,-0.24288 0.92422,-0.59235 0.92199,-0.7766 -0.003,-0.22904 -0.0852,-0.20947 -0.26053,0.0619 -0.14107,0.21828 -0.25831,0.30483 -0.26054,0.19234 -0.002,-0.1125 -0.33147,-0.002 -0.73165,0.2454 -1.12383,0.69495 -0.1908,-0.16551 1.45521,-1.34203 1.37402,-0.98211 1.94366,-1.08911 0.79375,-0.14909 -0.49124,0.40158 -0.53476,0.54775 -0.24891,0.83616 0.28653,0.2891 0.31752,0.27361 0.1793,-0.0896 -0.11419,-0.30008 0.006,-0.49421 0.3812,-0.61314 0.3025,-0.096 0.5483,-0.40052 0.5483,-0.67926 0,-0.27788 0.32742,-0.71359 0.72761,-0.96825 0.40018,-0.25465 0.78713,-0.53425 0.85989,-0.62133 0.0728,-0.0871 0.54901,-0.38749 1.05834,-0.66757 0.50932,-0.28009 1.0022,-0.61408 1.09529,-0.74222 0.23114,-0.31816 2.16698,-0.45079 2.34623,-0.16075 0.0824,0.13332 0.31159,0.12772 0.53421,-0.0131 0.32749,-0.20711 0.31579,-0.24722 -0.0731,-0.25062 -0.25466,-0.002 -0.46302,-0.12833 -0.46302,-0.28023 0,-0.1519 0.14883,-0.24763 0.33073,-0.21272 0.5868,0.11262 1.52135,-0.32941 1.52135,-0.71956 0,-0.20847 0.0893,-0.35375 0.19844,-0.32283 0.10914,0.0309 0.46879,-0.0936 0.79922,-0.27682 0.33043,-0.18317 0.71738,-0.26097 0.85989,-0.17289 0.14252,0.0881 0.25912,-0.0384 0.25912,-0.281028 0,-0.3449 0.15878,-0.40516 0.7276,-0.27614 0.65673,0.14896 0.68221,0.12937 0.26165,-0.20107 -0.42525,-0.33412 -0.42898,-0.39679 -0.0426,-0.71743 0.36382,-0.30194 0.41073,-0.2828 0.33367,0.13616 -0.0493,0.26811 0.0498,0.5364 0.22024,0.59619 0.19488,0.0684 0.25928,-0.0849 0.1735,-0.41292 -0.0883,-0.33771 0.0384,-0.61516 0.35933,-0.78693 0.42468,-0.22728 0.49162,-0.17149 0.46708,0.38926 -0.0195,0.44524 -0.31813,0.82964 -0.93382,1.20199 -0.49784,0.301088 -0.97932,0.663798 -1.06996,0.806028 -0.10644,0.16704 -0.34563,0.16182 -0.67554,-0.0147 -0.40773,-0.21821 -0.57833,-0.16516 -0.84573,0.26303 -0.18424,0.29501 -0.27,0.60135 -0.19058,0.68077 0.0794,0.0794 0.2192,-0.0506 0.31064,-0.28883 0.0914,-0.23827 0.27682,-0.36488 0.41197,-0.28135 0.13514,0.0835 -0.0596,0.39202 -0.43276,0.68556 -0.57182,0.44979 -0.75,0.47968 -1.13335,0.1901 -0.37799,-0.28553 -0.40184,-0.28379 -0.14114,0.0103 0.3928,0.44308 0.25882,0.58313 -2.09918,2.19431 -0.982,0.67098 -3.15497,2.2486 -4.82882,3.50583 -1.67384,1.25722 -3.14885,2.22065 -3.27778,2.14096 -0.12894,-0.0797 -0.39676,0.0622 -0.59515,0.31522 -0.31342,0.3998 -0.30733,0.42543 0.0465,0.19553 0.22396,-0.14552 0.0454,0.0632 -0.39687,0.46387 -0.4644,0.42072 -1.0085,0.68036 -1.28799,0.61462 -0.33408,-0.0786 -0.43944,0.002 -0.34025,0.26056 0.079,0.20591 0.0587,0.36172 -0.0453,0.34623 -0.49788,-0.0742 -0.84553,0.0929 -1.64436,0.79034 -0.49669,0.43366 -0.74935,0.82774 -0.59275,0.92452 0.15013,0.0928 0.34886,-0.0291 0.44164,-0.2709 0.12857,-0.33505 0.24214,-0.36616 0.47752,-0.13078 0.16985,0.16986 0.4454,0.30883 0.61233,0.30883 0.16693,0 2.6732,-1.72326 5.56948,-3.82946 5.16726,-3.75768 8.15169,-5.88648 19.28889,-13.758768 3.05594,-2.16008 7.06145,-5.00976 8.90114,-6.33262 8.33668,-5.99462 18.42741,-13.15804 20.33532,-14.43607 0.94589,-0.63361 2.45105,-1.72797 3.34481,-2.43192 0.89376,-0.70395 1.70679,-1.27991 1.80673,-1.27991 0.0999,0 1.03557,0.69397 2.07916,1.54216 2.07259,1.68453 9.01785,6.86855 17.90472,13.36425 3.128702,2.28687 8.546039,6.28049 12.038539,8.87471 3.492496,2.59422 7.659686,5.648108 9.260416,6.786428 4.18756,2.97788 7.59176,5.5005 10.31875,7.64653 3.37288,2.65432 4.62733,3.43422 4.97104,3.0905 0.42897,-0.42897 -0.2381,-1.03224 -5.22771,-4.7278 -2.47821,-1.83548 -7.42286,-5.49738 -10.98813,-8.137548 -3.56526,-2.64016 -7.077596,-5.20249 -7.805196,-5.69405 -0.72761,-0.49157 -2.70891,-1.91103 -4.4029,-3.15436 -1.693987,-1.24334 -3.956177,-2.89075 -5.027077,-3.66093 -2.513672,-1.80777 -5.402372,-4.26898 -5.330922,-4.54201 0.0307,-0.11722 -0.0884,-0.19737 -0.26458,-0.17811 -0.1762,0.0193 -0.34762,-0.0566 -0.38093,-0.16862 -0.13527,-0.45474 -0.75127,-0.91267 -1.06551,-0.79208 -0.21916,0.0841 -0.27851,-0.0189 -0.17153,-0.29774 0.09,-0.23448 0.0318,-0.42633 -0.12929,-0.42633 -0.16109,0 -0.29289,-0.18562 -0.29289,-0.41249 0,-0.22687 -0.10553,-0.34727 -0.2345,-0.26756 -0.12898,0.0797 -0.30367,-0.11957 -0.38821,-0.44284 -0.18676,-0.71415 0.2733,-1.29454 0.60313,-0.76088 0.12263,0.19842 0.38556,0.30592 0.58429,0.23888 0.22625,-0.0763 0.0399,-0.28875 -0.49856,-0.56821 -0.74016,-0.38417 -0.8599,-0.39127 -0.8599,-0.051 0,0.24274 -0.15321,0.33658 -0.39687,0.24307 -0.21829,-0.0838 -0.39688,-0.26564 -0.39688,-0.40418 0,-0.13854 0.11175,-0.18283 0.24832,-0.0984 0.13658,0.0844 0.34494,-0.0178 0.46302,-0.2272 0.17115,-0.30345 0.53339,-0.13952 1.78567,0.80811 0.86403,0.65384 2.02489,1.42037 2.57969,1.70341 l 1.00872,0.51461 v -2.23593 c 0,-2.11731 -0.0316,-2.24042 -0.59532,-2.32049 -0.51758,-0.0735 -0.60568,-0.26388 -0.67474,-1.4581 -0.057,-0.98507 0.0742,-1.67477 0.46388,-2.43855 0.61825,-1.21187 1.27723,-1.65192 2.788252,-1.86195 l 1.05603,-0.14678 0.002,-1.45521 c 0.002,-1.39772 0.0389,-1.47348 0.92835,-1.91782 1.23356,-0.61623 4.714407,-0.63663 5.982147,-0.035 0.93206,0.44229 1.10297,0.80754 1.22337,2.61433 0.0406,0.60969 0.21072,1.07235 0.40125,1.09141 0.1819,0.0182 0.56697,0.048 0.85572,0.0661 0.28875,0.0182 0.89038,0.36049 1.336956,0.76067 1.43712,1.2878 1.67384,4.34974 0.36175,4.67905 l -0.6362,0.15968 -0.002,6.14652 c -0.001,3.38059 -0.0746,6.74772 -0.162856,7.48252 l -0.16056,1.336 3.342576,2.36817 c 6.07121,4.30136 9.52517,6.792468 11.53522,8.319558 1.09141,0.82917 4.36563,3.20643 7.27604,5.2828 2.91042,2.07637 5.40202,3.87792 5.5369,4.00344 0.14754,0.13732 -0.18052,1.15287 -0.82357,2.54947 -0.58784,1.27667 -1.28049,2.82431 -1.53924,3.43918 l -0.47044,1.11795 -4.12995,0.0727 -4.12995,0.0727 -0.0459,19.31458 c -0.0253,10.62302 -0.11787,20.05873 -0.2058,20.96823 l -0.15988,1.65365 h 1.29072 l 21.584148,0.20988 c 0.662432,0.37385 1.827692,1.04787 0.04269,1.91054 -14.16735,-0.0516 -90.065483,0.20939 -120.666303,-0.0505 z m 10.64948,-2.28509 1.65364,-0.0494 v -5.91158 c 0,-3.25137 0.0778,-7.35903 0.17296,-9.12813 l 0.17295,-3.21654 h 7.36767 7.36767 v 8.30131 c 0,4.56571 0.0753,8.67763 0.16726,9.13759 l 0.16726,0.83628 2.41243,-0.0756 c 2.40011,-0.0752 2.41285,-0.0792 2.4946,-0.78719 0.0635,-0.54993 0.24382,-0.73024 0.79375,-0.79375 l 0.71158,-0.0822 0.0703,-7.6414 0.0703,-7.6414 -1.29304,0.17152 c -1.28607,0.17061 -1.29393,0.16705 -1.45932,-0.6599 -0.26472,-1.32359 -0.19386,-2.53163 0.16444,-2.80361 0.1819,-0.13807 1.88462,-0.81559 3.78383,-1.50561 3.72843,-1.3546 4.43152,-1.70211 3.88909,-1.92221 -0.25545,-0.10365 -0.33073,-2.17691 -0.33073,-9.10798 v -8.97378 h 8.4729 8.4729 l -0.0202,9.45885 -0.0202,9.45885 3.87102,1.19063 c 2.12906,0.65484 3.86174,1.27992 3.85038,1.38906 -0.0113,0.10914 -0.0206,0.9775 -0.0206,1.92968 v 1.73125 l -0.99219,-0.0776 -0.99219,-0.0776 -0.0702,7.45554 -0.0702,7.45554 0.58377,0.0851 c 0.39937,0.0582 0.65096,0.34586 0.79652,0.9107 0.21028,0.81602 0.23734,0.82776 2.3271,1.01005 1.16289,0.10144 2.24855,0.10149 2.41258,1.2e-4 0.21491,-0.13283 0.27137,-2.70659 0.20208,-9.21214 l -0.0962,-9.02782 7.540619,-0.0702 7.540626,-0.0702 -0.0727,9.23203 -0.0727,9.23202 4.43834,0.0204 c 2.44109,0.0112 4.67646,-0.0849 4.96751,-0.21353 0.41887,-0.18514 0.43802,-0.23776 0.0919,-0.25248 -0.36744,-0.0156 -0.41942,-0.26159 -0.32545,-1.53995 0.19222,-2.61499 0.31192,-3.618 0.50519,-4.23334 0.11733,-0.37357 0.0769,-0.59531 -0.10846,-0.59531 -0.1625,0 -0.29545,-0.12609 -0.29545,-0.2802 0,-0.15411 0.0935,-0.22238 0.20789,-0.15172 0.11434,0.0707 0.20789,-0.0922 0.20789,-0.36183 0,-0.26967 -0.0891,-0.43525 -0.19798,-0.36796 -0.10889,0.0673 -0.17267,-0.23886 -0.14174,-0.68036 0.0309,-0.44149 0.1753,-0.80477 0.32082,-0.80729 0.14552,-0.003 0.0936,-0.11274 -0.11528,-0.24494 -0.3035,-0.19205 -0.31458,-0.31903 -0.0551,-0.63168 0.23764,-0.28634 0.24373,-0.41832 0.0227,-0.49201 -0.20551,-0.0685 -0.31883,-1.38234 -0.35447,-4.10934 -0.0288,-2.20477 0.0426,-3.94994 0.15875,-3.87818 0.11612,0.0718 0.21113,-0.0622 0.21113,-0.29762 0,-0.23545 -0.12262,-0.35232 -0.27248,-0.2597 -0.17398,0.10753 -0.24572,-0.22147 -0.19844,-0.91004 0.0407,-0.59314 0.1404,-1.07861 0.2215,-1.07883 0.0811,-2.1e-4 0.10768,-0.32781 0.0591,-0.72799 -0.31135,-2.56325 -0.32331,-2.84479 -0.0928,-2.18281 l 0.23036,0.66146 0.0264,-0.72761 c 0.0145,-0.40018 -0.0927,-0.7276 -0.23821,-0.7276 -0.14552,0 -0.26276,-0.20836 -0.26053,-0.46302 0.003,-0.3957 0.0413,-0.40532 0.26053,-0.0661 0.19042,0.29465 0.26321,0.12428 0.28259,-0.66146 0.0144,-0.58208 0.0657,-1.35598 0.11409,-1.71979 0.0484,-0.3638 0.11245,-1.58609 0.14234,-2.7162 0.0299,-1.13011 0.14332,-2.10973 0.25207,-2.17694 0.32743,-0.20236 0.40133,3.54589 0.36254,18.38689 -0.027,10.3405 0.0443,14.2076 0.26458,14.3496 0.16587,0.10691 0.74807,0.19621 1.29377,0.19843 l 0.99219,0.004 0.0173,-9.72344 c 0.0277,-15.6069 0.26004,-35.88572 0.4129,-36.03981 0.0774,-0.0781 1.64946,-0.20149 3.49335,-0.27425 l 3.35252,-0.13229 -2.80696,-2.3197 c -1.54383,-1.27583 -3.49687,-2.80298 -4.3401,-3.39366 -0.84323,-0.59069 -3.56869,-2.58986 -6.05658,-4.44261 -6.75213,-5.028358 -9.157626,-6.799008 -16.561974,-12.191078 -3.710781,-2.7023 -7.997031,-5.83122 -9.525001,-6.95314 -1.52797,-1.12192 -4.92125,-3.6078 -7.54063,-5.52417 -2.61937,-1.91637 -5.16411,-3.83354 -5.65496,-4.26038 -1.74768,-1.51977 -1.72948,-1.52256 -5.0761,0.77872 -1.665,1.14492 -4.39649,3.09922 -6.06998,4.3429 -1.67349,1.24367 -4.65005,3.39291 -6.61458,4.77608 -5.40534,3.80574 -14.6052,10.36996 -17.72708,12.64851 -1.52797,1.1152 -3.79016,2.723888 -5.02709,3.574858 -1.23692,0.85097 -5.27371,3.81826 -8.97064,6.59398 -3.69693,2.77572 -7.11998,5.33077 -7.60677,5.67788 -0.4868,0.34711 -0.88509,0.73406 -0.88509,0.85989 0,0.12584 1.78594,0.22879 3.96875,0.22879 h 3.96875 l 0.0331,6.74688 c 0.0182,3.71078 0.0628,6.86593 0.0992,7.01145 0.0364,0.14552 0.081,7.34008 0.0992,15.98789 0.0308,14.66031 0.0639,15.7291 0.48928,15.80886 0.47085,0.0883 6.61034,0.09 9.53182,0.003 z m 4.74045,-27.47791 c -0.38777,-0.38777 -0.16089,-1.38037 0.35278,-1.5434 0.51015,-0.16192 0.52916,-0.40033 0.52916,-6.63667 v -6.46871 l 7.2099,0.0704 7.2099,0.0704 0.0708,6.38862 0.0708,6.38863 0.65681,0.16485 c 0.51561,0.12941 0.65682,0.33442 0.65682,0.95356 v 0.78871 h -8.29028 c -4.55965,0 -8.36965,-0.0794 -8.46667,-0.17639 z m 6.96736,-7.23194 v -5.29162 h -2.11667 -2.11666 v 5.11528 c 0,2.8134 0.0794,5.19465 0.17639,5.29166 0.097,0.097 1.04951,0.17639 2.11666,0.17639 h 1.94028 z m 6.18175,3.79953 c 0.0925,-0.67516 0.16825,-2.9286 0.16825,-5.00765 v -3.78009 l -2.27221,-0.0856 c -1.24971,-0.0471 -2.32127,-0.036 -2.38125,0.0247 -0.06,0.0606 -0.10904,2.35259 -0.10904,5.09323 v 4.98299 h 2.213 2.21299 z m 34.82866,2.71583 c 0,-0.76195 0.10676,-0.91464 0.72761,-1.04067 l 0.7276,-0.1477 0.0724,-6.15347 c 0.0398,-3.38441 0.0994,-6.17382 0.13229,-6.19868 0.0329,-0.0249 3.30431,-0.11859 7.269751,-0.20828 l 7.209898,-0.16308 v 6.45881 6.45881 l 0.7276,0.0837 c 0.60628,0.0698 0.74143,0.2271 0.81052,0.94361 l 0.0829,0.8599 h -8.880298 -8.880311 z m 7.223211,-6.30631 c 0.0892,-2.79543 0.13665,-5.10823 0.10533,-5.13955 -0.15313,-0.15313 -4.012331,-0.16168 -3.955101,-0.009 0.0364,0.0972 0.0661,2.43894 0.0661,5.20384 v 5.02708 h 1.81068 1.810681 z m 4.501738,4.79673 2.29797,-0.0506 v -4.99112 -4.99111 h -2.497928 c -1.37386,0 -2.55087,0.0893 -2.61558,0.19844 -0.18942,0.31947 0.14316,10.11648 0.33931,9.99525 0.098,-0.0606 1.21235,-0.13296 2.476228,-0.16082 z m 17.379216,-4.32871 c 0,-0.20969 0.0935,-0.43908 0.20789,-0.50974 0.11434,-0.0707 0.20789,0.1009 0.20789,0.38126 0,0.28036 -0.0935,0.50974 -0.20789,0.50974 -0.11434,0 -0.20789,-0.17157 -0.20789,-0.38126 z m 0.1689,-1.60312 c -0.0838,-0.21828 -0.037,-0.39687 0.10399,-0.39687 0.14095,0 0.25628,0.17859 0.25628,0.39687 0,0.21829 -0.0468,0.39688 -0.10399,0.39688 -0.0572,0 -0.17251,-0.17859 -0.25628,-0.39688 z m -0.1503,-1.38906 c 0.0102,-0.10914 0.12149,-0.43656 0.24724,-0.7276 0.1973,-0.45663 0.22311,-0.42942 0.18828,0.19844 -0.0222,0.40018 -0.13346,0.7276 -0.24724,0.7276 -0.11378,0 -0.19851,-0.0893 -0.18828,-0.19844 z m -55.845675,-14.46983 v -1.17457 l 1.12448,0.0501 1.12447,0.0501 0.0717,-5.22552 0.0717,-5.225518 h 8.58777 8.58778 l 0.0717,5.225518 0.0717,5.22552 1.38906,0.08 1.38906,0.08 v 1.0445 1.04451 h -11.24463 -11.24479 z m 8.46666,-5.30772 v -4.101038 h -2.11666 -2.11667 v 4.101038 4.10104 h 2.11667 2.11666 z m 8.82601,3.10885 c 0.0902,-0.5457 0.16531,-2.46853 0.16691,-4.27295 l 0.003,-3.280768 -2.4219,0.17192 c -1.33204,0.0946 -2.98487,0.17191 -3.67295,0.17191 h -1.25105 l 0.0874,2.976558 c 0.0481,1.63711 0.0935,3.48258 0.10107,4.10104 l 0.0137,1.12448 h 3.40496 3.40497 z m -3.1937,47.0479 c 0.11459,-3.70077 0.1481,-6.88569 0.0745,-7.07761 -0.0964,-0.25113 -0.7666,-0.34893 -2.39116,-0.34893 h -2.25726 v 6.96736 c 0,3.83205 0.0839,7.0513 0.18654,7.1539 0.1026,0.1026 1.08486,0.15221 2.18281,0.11024 l 1.99627,-0.0763 z m -6.18465,1.37084 c -0.0127,-2.87403 -0.11591,-5.82083 -0.22923,-6.54844 -0.11333,-0.7276 -0.22196,-1.11884 -0.24141,-0.86943 -0.0194,0.24942 -0.47971,0.75543 -1.02281,1.12448 -0.5431,0.36905 -0.82092,0.671 -0.61736,0.671 0.52669,0 0.10905,0.35033 -0.53477,0.44858 -0.3087,0.0471 -0.46847,-0.0311 -0.37445,-0.1832 0.28388,-0.45932 -0.1894,-0.28774 -0.54401,0.19722 -0.18605,0.25443 -0.40837,0.39251 -0.49404,0.30683 -0.0857,-0.0857 0.21202,-0.6635 0.66155,-1.28406 0.57676,-0.79619 0.77195,-1.3091 0.66315,-1.74261 -0.11191,-0.44586 -0.0272,-0.64751 0.309,-0.73535 0.25475,-0.0666 -0.28096,-0.13484 -1.19046,-0.15172 l -1.65365,-0.0307 v 7.01145 7.01146 h 2.64583 2.64584 z m 12.39684,-1.71979 -0.0705,-6.94531 -2.18281,-0.0769 -2.18281,-0.0768 v 1.47421 c 0,1.06633 0.1098,1.51635 0.39687,1.62651 0.21828,0.0838 0.39688,0.44424 0.39688,0.80106 0,0.35682 0.10552,0.58354 0.2345,0.50383 0.29674,-0.18339 0.55095,0.74627 0.55563,2.03193 0.003,0.68786 -0.11299,0.99219 -0.37655,0.99219 -0.29306,0 -0.37029,0.36376 -0.33703,1.5875 0.0351,1.29327 0.12553,1.5875 0.48769,1.5875 0.31197,0 0.40392,0.15538 0.3083,0.52101 -0.0749,0.28656 -0.006,0.89383 0.15257,1.3495 0.23134,0.66363 0.21951,0.80189 -0.0595,0.69484 -0.19156,-0.0735 -0.34828,0.0353 -0.34828,0.24183 0,0.25243 0.16982,0.32159 0.5182,0.21102 0.34214,-0.1086 0.4567,-0.065 0.33716,0.12845 -0.12229,0.19788 0.21178,0.29293 1.0296,0.29293 h 1.21063 z m 17.201461,-0.67187 0.0741,-7.4849 -2.31838,0.0766 -2.318371,0.0766 -0.01,7.4839 -0.01,7.48389 2.254161,-0.0756 2.25415,-0.0756 z m 6.724808,6.22438 c 0.0997,-1.04594 0.0993,-2.46223 -0.003,-10.05043 l -0.0491,-3.63802 -2.44739,-2.5e-4 -2.4474,-2.6e-4 0.0646,6.01953 c 0.0355,3.31074 0.13266,6.63865 0.21582,7.39536 l 0.15122,1.37584 1.37168,0.0794 c 0.75442,0.0437 1.74724,0.0379 2.20626,-0.0128 0.76401,-0.0843 0.84326,-0.18314 0.93722,-1.16837 z M -155.621,25.34089 c 0.0755,-2.25842 0.0799,-2.27189 0.35478,-1.0751 0.15309,0.66659 0.18286,1.15297 0.0661,1.08084 -0.1167,-0.0721 -0.21219,-0.005 -0.21219,0.14906 0,0.15411 0.29766,0.2802 0.66146,0.2802 0.3638,0 0.66146,-0.12609 0.66146,-0.2802 0,-0.15411 0.11083,-0.2117 0.2463,-0.12798 0.13547,0.0837 0.32109,0.0312 0.41249,-0.11667 0.0914,-0.1479 0.27822,-0.2689 0.41516,-0.2689 0.4065,0 0.28346,0.57789 -0.19799,0.92994 -0.39458,0.28852 -0.36174,0.32683 0.2802,0.32683 0.50016,0 0.68456,-0.11101 0.59069,-0.35562 -0.0751,-0.19559 0.0258,-0.66841 0.22415,-1.0507 0.34167,-0.65857 0.35845,-0.6172 0.31929,0.78736 -0.0227,0.81535 -0.13063,1.48164 -0.23977,1.48065 -0.10914,-9.9e-4 -0.34727,-0.004 -0.52917,-0.006 -0.22048,-0.003 -0.19843,-0.0895 0.0662,-0.26053 0.30816,-0.19915 0.23074,-0.25739 -0.34634,-0.26053 -0.42891,-0.002 -0.67407,0.10784 -0.5797,0.26053 0.0899,0.14552 -0.0816,0.26458 -0.38126,0.26458 -0.71178,0 -0.956,-0.0893 -0.87868,-0.3212 0.0346,-0.10391 -0.11923,-0.119 -0.34192,-0.0335 -0.92046,0.35321 -0.11261,0.75596 1.68148,0.83829 l 1.88852,0.0867 0.0743,-7.42901 0.0743,-7.42902 -2.4474,1.7e-4 -2.4474,1.6e-4 v 7.40834 c 0,4.56242 0.0977,7.40833 0.25429,7.40833 0.13985,0 0.28868,-1.02919 0.33073,-2.28708 z m 3.38374,-2.75562 c 0,-0.15411 0.11906,-0.20661 0.26458,-0.11668 0.14552,0.0899 0.26458,0.21603 0.26458,0.2802 0,0.0642 -0.11906,0.11668 -0.26458,0.11668 -0.14552,0 -0.26458,-0.12609 -0.26458,-0.2802 z m 0.13229,-6.33438 c 0.0899,-0.14552 0.21602,-0.26459 0.2802,-0.26459 0.0642,0 0.11667,0.11907 0.11667,0.26459 0,0.14552 -0.12609,0.26458 -0.28019,0.26458 -0.15411,0 -0.20662,-0.11906 -0.11668,-0.26458 z m 6.95949,11.02273 c -0.1949,-0.1949 -0.53082,-0.42999 -0.74651,-0.52243 -0.22535,-0.0966 -0.11079,-0.1428 0.26931,-0.10866 l 0.66146,0.0594 0.0818,-6.94531 0.0818,-6.94532 h -2.5634 -2.5634 l 0.16369,1.78594 c 0.09,0.98227 0.17924,4.16492 0.19824,7.07257 0.019,2.90765 0.0925,5.43773 0.16338,5.6224 0.0901,0.2347 0.80293,0.33576 2.3684,0.33576 1.87127,0 2.18128,-0.0583 1.8852,-0.35435 z m -3.91678,-0.42379 c 0,-0.63885 0.14713,-0.7033 0.35701,-0.15638 0.082,0.21363 0.0352,0.45878 -0.10399,0.54479 -0.13916,0.086 -0.25302,-0.0888 -0.25302,-0.38841 z m 0.88194,0.14191 c 0,-0.20441 0.15807,-0.311 0.35126,-0.23686 0.19319,0.0741 0.28538,0.24137 0.20487,0.37165 -0.22393,0.36233 -0.55613,0.28181 -0.55613,-0.13479 z m 14.72848,-9.77856 V 8.38589 l 2.44739,-0.15041 c 2.94616,-0.18107 19.18525,-0.0735 19.38717,0.12845 0.0784,0.0784 0.21749,4.09117 0.30915,8.91733 0.11665,6.14172 0.25309,8.74606 0.4547,8.67891 0.19802,-0.0659 0.30981,-2.82908 0.35771,-8.84131 l 0.0697,-8.74539 -2.71551,-0.96224 c -1.49353,-0.52923 -3.54107,-1.22735 -4.55008,-1.55139 -1.58393,-0.50867 -1.86199,-0.69246 -2.03524,-1.3452 -0.46498,-1.75184 -2.00489,-2.30606 -3.11732,-1.12194 -0.72808,0.77501 -0.6501,1.75107 0.17254,2.15955 0.32656,0.16216 0.51642,0.37216 0.42191,0.46667 -0.0945,0.0945 0.29314,-0.0546 0.86146,-0.33135 1.14605,-0.5581 1.42269,-0.51631 0.88344,0.13344 -0.91106,1.09777 -2.2056,0.99367 -3.47703,-0.2796 l -0.71649,-0.71752 -1.26789,0.42008 c -0.69734,0.23105 -1.9649,0.60118 -2.81681,0.82253 -0.8519,0.22134 -2.42948,0.76902 -3.50572,1.21706 l -1.95681,0.81462 v 8.97115 c 0,7.79796 0.0519,8.97114 0.39687,8.97114 0.34485,0 0.39688,-1.1572 0.39688,-8.82729 z m 6.73972,-16.56119 c 0.086,-0.13917 0.33116,-0.18596 0.54478,-0.10399 0.33443,0.12833 0.38841,-0.68226 0.38841,-5.83239 v -6.17987 c 0,-0.10914 -0.86321,-0.19843 -1.91823,-0.19843 h -1.91823 l -0.0269,6.08541 c -0.0148,3.34698 0.022,6.17472 0.0818,6.28386 0.15916,0.29063 2.66474,0.24261 2.84842,-0.0546 z m 10.2553,-5.89854 c 0.0735,-3.38336 0.0826,-6.24086 0.0203,-6.35 -0.13519,-0.23689 -5.49236,-0.26731 -6.6404,-0.0377 l -0.8037,0.16074 -0.0246,5.89297 -0.0246,5.89297 2.05199,0.25886 c 1.1286,0.14237 2.77997,0.2757 3.66971,0.29629 l 1.61771,0.0374 z m -65.03402,-13.66521 c -0.16608,-0.16608 -0.63836,0.50591 -0.63187,0.89907 0.002,0.14552 0.17794,0.0351 0.39009,-0.24527 0.21214,-0.28042 0.32095,-0.57463 0.24178,-0.6538 z m 2.42363,-3.77202 c 0.11697,-0.18926 0.0726,-0.23365 -0.11667,-0.11668 -0.16801,0.10383 -0.30547,0.0627 -0.30547,-0.0914 0,-0.15411 -0.13364,-0.2802 -0.29698,-0.2802 -0.20518,0 -0.19517,0.12267 0.0324,0.39688 0.39589,0.47701 0.44442,0.48347 0.68673,0.0914 z m 1.88745,-1.17731 c -0.0879,-0.0879 -0.31612,-0.0973 -0.50711,-0.0209 -0.21107,0.0845 -0.14838,0.14716 0.15985,0.15986 0.27891,0.0115 0.43518,-0.0511 0.34726,-0.13897 z m 6.42166,-6.21015 c 0,-0.12538 -0.17859,-0.15944 -0.39687,-0.0757 -0.21828,0.0838 -0.39688,0.25489 -0.39688,0.38027 0,0.12539 0.1786,0.15944 0.39688,0.0757 0.21828,-0.0838 0.39687,-0.25489 0.39687,-0.38027 z m 0.79375,0.13668 c 0,-0.22687 -0.11906,-0.3389 -0.26458,-0.24897 -0.14552,0.0899 -0.26458,0.27556 -0.26458,0.41249 0,0.13693 0.11906,0.24897 0.26458,0.24897 0.14552,0 0.26458,-0.18562 0.26458,-0.41249 z m 6.87917,-3.672938 c 0,-0.0642 -0.11906,-0.19026 -0.26458,-0.28019 -0.14552,-0.0899 -0.26459,-0.0374 -0.26459,0.11667 0,0.15411 0.11907,0.2802 0.26459,0.2802 0.14552,0 0.26458,-0.0525 0.26458,-0.11668 z m 72.346379,-22.6105 c -0.0871,-0.0871 -0.33736,0.0795 -0.55609,0.37036 -0.57298,0.76179 -0.41116,12.52067 0.18214,13.23597 0.34747,0.41891 0.39899,-0.30511 0.46173,-6.4882 0.0388,-3.82786 -6.7e-4,-7.03101 -0.0878,-7.11813 z m -8.581798,4.07411 c 0,-3.10284 -0.0705,-3.83646 -0.36857,-3.83646 -0.580641,0 -0.689761,0.6229 -0.689761,3.93747 0,2.94157 0.17993,3.73544 0.846661,3.73544 0.11642,0 0.21167,-1.7264 0.21167,-3.83645 z m 9.726508,-6.4823 c -0.0651,-0.33773 -0.90339,-0.39687 -5.62547,-0.39687 -4.722118,0 -5.560379,0.0591 -5.625349,0.39687 -0.066,0.34286 0.69963,0.39688 5.625459,0.39688 4.92588,0 5.69141,-0.054 5.62536,-0.39688 z m -3.11193,-4.08879 c 0,-0.5702 -0.58568,-0.85703 -2.09782,-1.02736 -1.579748,-0.17794 -2.135128,0.0772 -2.136128,0.98136 -5.9e-4,0.5345 0.10626,0.55856 2.116668,0.47662 1.51784,-0.0619 2.11728,-0.18378 2.11728,-0.43062 z"
           id="path31-8-9"
           sodipodi:nodetypes="ccssssssssscsssssssssssssssssssssssssssssscsssssssssssscssssssssssssssssssssssssssssssssssssssssssssssssssssssssssssssssssssssssssscsssssccsssscssccccssssssccccsccccccccsscccsscssscccsssssscccccssscccccssssscccccssssssssssscssssssssscscsscsssssssscssscsssssssssssssssscssssccssscccccsscsssccccsssccsscscscccssscsssccccscccscsssccccccccsssscsssssssssssssssccccccccccccccccccccccccccccccscscccccscscssscscssssssssssssccccccccccsssscsssscsssssccccccccccccscccsscsccccsssssssssssssscscssscscccccssccssssssssssssscccccsssssssssscssccssssscssssssssscssscsssccsssscscccssscccsscsssssssssssssssssssscsssssssssssssssssssssssssssssssss" /><text
           xml:space="preserve"
           style="font-size:25.4px;fill:#000000;stroke:none;stroke-width:2.765;stroke-linecap:round;stroke-linejoin:round;stroke-dasharray:none"
           x="-172.3381"
           y="53.790272"
           id="text4-9-3"><tspan
             sodipodi:role="line"
             id="tspan4-9-0"
             style="font-style:normal;font-variant:normal;font-weight:normal;font-stretch:normal;font-size:25.4px;font-family:'Eras Bold ITC';-inkscape-font-specification:'Eras Bold ITC';fill:#000000;stroke:none;stroke-width:2.765"
             x="-172.3381"
             y="53.790272">FIRENZ</tspan></text><path
           style="fill:none;stroke:url(#linearGradient77);stroke-width:2.3;stroke-linecap:round;stroke-linejoin:round;stroke-dasharray:none"
           d="m -174.18934,28.01758 -0.0457,-41.25292 -8.17389,-0.31965 -2.92251,-6.43864"
           id="path6-31-75"
           sodipodi:nodetypes="cccc" /><path
           style="fill:#000080;stroke:#000000;stroke-width:1.8;stroke-linecap:round;stroke-linejoin:round;stroke-dasharray:none;stroke-opacity:1"
           d="m -174.18969,31.847952 c 0,0 125.83564,0.0961 124.44179,0"
           id="path12-4-3"
           sodipodi:nodetypes="cc" /><path
           style="fill:#000080;stroke:#000000;stroke-width:1.8;stroke-linecap:round;stroke-linejoin:round;stroke-dasharray:none;stroke-opacity:1"
           d="m -164.88528,34.183922 h 62.30914"
           id="path13-74-1"
           sodipodi:nodetypes="cc" /><path
           style="fill:#000080;stroke:#000000;stroke-width:1.8;stroke-linecap:round;stroke-linejoin:round;stroke-dasharray:none;stroke-opacity:1"
           d="m -97.030606,34.18392 c 0.23645,0 21.51754,0 21.51754,0"
           id="path13-7-9-3" /><path
           style="fill:#000080;stroke:#000000;stroke-width:1.8;stroke-linecap:round;stroke-linejoin:round;stroke-dasharray:none;stroke-opacity:1"
           d="m -71.779966,34.18392 c 0.0518,0 4.7121,0 4.7121,0"
           id="path13-7-1-4-7" /><path
           style="fill:#000080;stroke:#000000;stroke-width:1.8;stroke-linecap:round;stroke-linejoin:round;stroke-dasharray:none;stroke-opacity:1"
           d="m -63.798676,34.18392 c 0.0355,0 3.23289,0 3.23289,0"
           id="path13-7-1-8-5-9" /><path
           style="fill:#000080;stroke:#000000;stroke-width:1.8;stroke-linecap:round;stroke-linejoin:round;stroke-dasharray:none;stroke-opacity:1"
           d="m -57.804044,34.18392 c 0.019,0 1.726291,0 1.726291,0"
           id="path13-7-1-2-4-49" /><path
           style="fill:#000080;stroke:#000000;stroke-width:1.8;stroke-linecap:round;stroke-linejoin:round;stroke-dasharray:none;stroke-opacity:1"
           d="m -53.657552,34.18392 c 0.019,0 1.726292,0 1.726292,0"
           id="path13-7-1-2-0-7-9" /><path
           id="rect44-9-5"
           style="fill:#008000;stroke:none;stroke-width:1.01645;stroke-linecap:round;stroke-linejoin:round"
           d="m -71.995792,-13.41596 v 6.64292 h 8.46491 v -0.0233 l 6.894856,-3.30996 -6.894856,-3.30963 z"
           sodipodi:nodetypes="ccccccc" /><path
           id="rect44-9-8-2"
           style="fill:#a3e100;fill-opacity:1;stroke:none;stroke-width:1.01645;stroke-linecap:round;stroke-linejoin:round"
           d="m -71.995792,-6.50169 v 6.64292 h 10.482044 v -0.0233 l 6.894856,-3.30996 -6.894856,-3.30963 z"
           sodipodi:nodetypes="ccccccc" /><path
           id="rect44-9-7-1"
           style="fill:#f4ff12;fill-opacity:1;stroke:none;stroke-width:1.01645;stroke-linecap:round;stroke-linejoin:round"
           d="M -71.995792,0.41258 V 7.0555 h 12.694044 V 7.0322 l 6.894856,-3.30996 -6.894856,-3.30963 z"
           sodipodi:nodetypes="ccccccc" /><path
           id="rect44-9-6-83"
           style="fill:#f7b400;fill-opacity:1;stroke:none;stroke-width:1.01645;stroke-linecap:round;stroke-linejoin:round"
           d="m -71.995792,7.32685 v 6.64292 h 14.840044 v -0.0233 l 6.894856,-3.30996 -6.894856,-3.30963 z"
           sodipodi:nodetypes="ccccccc" /><path
           id="rect44-9-4-1"
           style="fill:#fb7d00;fill-opacity:1;stroke:none;stroke-width:1.01645;stroke-linecap:round;stroke-linejoin:round"
           d="m -71.995792,14.24112 v 6.64292 h 16.944044 v -0.0233 l 6.894856,-3.30996 -6.894856,-3.30963 z"
           sodipodi:nodetypes="ccccccc" /><path
           id="rect44-9-81-9"
           style="fill:#ea2100;fill-opacity:1;stroke:none;stroke-width:1.01645;stroke-linecap:round;stroke-linejoin:round"
           d="m -71.995792,21.15539 v 6.64292 h 19.144044 v -0.0233 l 6.894856,-3.30996 -6.894856,-3.30963 z"
           sodipodi:nodetypes="ccccccc" /><text
           xml:space="preserve"
           style="font-size:8.46667px;font-family:'Eras Bold ITC';-inkscape-font-specification:'Eras Bold ITC';text-align:center;text-anchor:middle;fill:#ea2100;fill-opacity:1;stroke:#000000;stroke-width:0.1;stroke-linecap:round;stroke-linejoin:round;stroke-dasharray:none"
           x="-67.147934"
           y="-7.2540483"
           id="text58-46"><tspan
             sodipodi:role="line"
             id="tspan58-01"
             style="font-style:normal;font-variant:normal;font-weight:normal;font-stretch:normal;font-size:8.46667px;font-family:'Franklin Gothic Demi';-inkscape-font-specification:'Franklin Gothic Demi';fill:#ffffff;stroke:#ffffff;stroke-width:0.1"
             x="-67.147934"
             y="-7.2540483">A</tspan></text><text
           xml:space="preserve"
           style="font-size:8.46667px;font-family:'Eras Bold ITC';-inkscape-font-specification:'Eras Bold ITC';text-align:center;text-anchor:middle;fill:#ea2100;fill-opacity:1;stroke:#000000;stroke-width:0.1;stroke-linecap:round;stroke-linejoin:round;stroke-dasharray:none"
           x="-67.530334"
           y="-0.30573732"
           id="text58-2-4"><tspan
             sodipodi:role="line"
             id="tspan58-2-97"
             style="font-style:normal;font-variant:normal;font-weight:normal;font-stretch:normal;font-size:8.46667px;font-family:'Franklin Gothic Demi';-inkscape-font-specification:'Franklin Gothic Demi';fill:#ffffff;stroke:#ffffff;stroke-width:0.1"
             x="-67.530334"
             y="-0.30573732">B</tspan></text><text
           xml:space="preserve"
           style="font-size:8.46667px;font-family:'Eras Bold ITC';-inkscape-font-specification:'Eras Bold ITC';text-align:center;text-anchor:middle;fill:#ea2100;fill-opacity:1;stroke:#000000;stroke-width:0.1;stroke-linecap:round;stroke-linejoin:round;stroke-dasharray:none"
           x="-67.362907"
           y="6.2920256"
           id="text58-3-4"><tspan
             sodipodi:role="line"
             id="tspan58-3-1"
             style="font-style:normal;font-variant:normal;font-weight:normal;font-stretch:normal;font-size:8.46667px;font-family:'Franklin Gothic Demi';-inkscape-font-specification:'Franklin Gothic Demi';fill:#ffffff;stroke:#ffffff;stroke-width:0.1"
             x="-67.362907"
             y="6.2920256">C</tspan></text><text
           xml:space="preserve"
           style="font-size:8.46667px;font-family:'Eras Bold ITC';-inkscape-font-specification:'Eras Bold ITC';text-align:center;text-anchor:middle;fill:#ea2100;fill-opacity:1;stroke:#000000;stroke-width:0.1;stroke-linecap:round;stroke-linejoin:round;stroke-dasharray:none"
           x="-67.54274"
           y="13.283023"
           id="text58-4-4"><tspan
             sodipodi:role="line"
             id="tspan58-0-8"
             style="font-style:normal;font-variant:normal;font-weight:normal;font-stretch:normal;font-size:8.46667px;font-family:'Franklin Gothic Demi';-inkscape-font-specification:'Franklin Gothic Demi';fill:#ffffff;stroke:#ffffff;stroke-width:0.1"
             x="-67.54274"
             y="13.283023">D</tspan></text><text
           xml:space="preserve"
           style="font-size:8.46667px;font-family:'Eras Bold ITC';-inkscape-font-specification:'Eras Bold ITC';text-align:center;text-anchor:middle;fill:#ea2100;fill-opacity:1;stroke:#000000;stroke-width:0.1;stroke-linecap:round;stroke-linejoin:round;stroke-dasharray:none"
           x="-67.871399"
           y="20.230167"
           id="text58-1-7"><tspan
             sodipodi:role="line"
             id="tspan58-1-5"
             style="font-style:normal;font-variant:normal;font-weight:normal;font-stretch:normal;font-size:8.46667px;font-family:'Franklin Gothic Demi';-inkscape-font-specification:'Franklin Gothic Demi';fill:#ffffff;stroke:#ffffff;stroke-width:0.1"
             x="-67.871399"
             y="20.230167">E</tspan></text><text
           xml:space="preserve"
           style="font-size:8.46667px;font-family:'Eras Bold ITC';-inkscape-font-specification:'Eras Bold ITC';text-align:center;text-anchor:middle;fill:#ea2100;fill-opacity:1;stroke:#000000;stroke-width:0.1;stroke-linecap:round;stroke-linejoin:round;stroke-dasharray:none"
           x="-67.941681"
           y="27.35709"
           id="text58-6-0"><tspan
             sodipodi:role="line"
             id="tspan58-30-5"
             style="font-style:normal;font-variant:normal;font-weight:normal;font-stretch:normal;font-size:8.46667px;font-family:'Franklin Gothic Demi';-inkscape-font-specification:'Franklin Gothic Demi';fill:#ffffff;stroke:#ffffff;stroke-width:0.1"
             x="-67.941681"
             y="27.35709">F</tspan></text><path
           style="fill:none;stroke:url(#linearGradient87);stroke-width:2.29889;stroke-linecap:round;stroke-linejoin:round;stroke-dasharray:none"
           d="m -174.0766,29.09874 -0.0621,-41.892397"
           id="path85" /></g></g></g></svg>
